<?xml version="1.0" encoding="UTF-8"?>
<svg width="129px" height="133px" viewBox="0 0 129 133" version="1.1" xmlns="http://www.w3.org/2000/svg" xmlns:xlink="http://www.w3.org/1999/xlink">
    <!-- Generator: Sketch 55.1 (78136) - https://sketchapp.com -->
    <title>Group 7</title>
    <desc>Created with Sketch.</desc>
    <defs>
        <polygon id="path-1" points="21.8801394 32.9583088 9.24275646 39.6021742 11.6562818 25.5302415 1.43242429 15.5644434 15.5614479 13.5113761 21.8801394 0.708308788 28.1988309 13.5113761 42.3278545 15.5644434 32.1039969 25.5302415 34.5175223 39.6021742"></polygon>
        <filter x="-11.5%" y="-14.0%" width="137.0%" height="132.3%" filterUnits="objectBoundingBox" id="filter-2">
            <feOffset dx="3" dy="3" in="SourceAlpha" result="shadowOffsetOuter1"></feOffset>
            <feGaussianBlur stdDeviation="2.5" in="shadowOffsetOuter1" result="shadowBlurOuter1"></feGaussianBlur>
            <feComposite in="shadowBlurOuter1" in2="SourceAlpha" operator="out" result="shadowBlurOuter1"></feComposite>
            <feColorMatrix values="0 0 0 0 0   0 0 0 0 0   0 0 0 0 0  0 0 0 0.252076049 0" type="matrix" in="shadowBlurOuter1"></feColorMatrix>
        </filter>
        <polygon id="path-3" points="16.4315939 12.2185485 18.82474 13.5302104 21.4315939 7.75851837 19.4539719 6.53021043"></polygon>
        <filter x="-170.0%" y="-164.3%" width="780.0%" height="571.4%" filterUnits="objectBoundingBox" id="filter-4">
            <feOffset dx="9" dy="5" in="SourceAlpha" result="shadowOffsetOuter1"></feOffset>
            <feGaussianBlur stdDeviation="4" in="shadowOffsetOuter1" result="shadowBlurOuter1"></feGaussianBlur>
            <feColorMatrix values="0 0 0 0 0   0 0 0 0 0   0 0 0 0 0  0 0 0 0.252076049 0" type="matrix" in="shadowBlurOuter1"></feColorMatrix>
        </filter>
        <polygon id="path-5" points="33.840599 18.3028911 36.3657718 19.2163405 37.9117625 14.1867743 36.2721925 11.4003355"></polygon>
        <filter x="-208.8%" y="-147.1%" width="935.1%" height="522.2%" filterUnits="objectBoundingBox" id="filter-6">
            <feOffset dx="9" dy="5" in="SourceAlpha" result="shadowOffsetOuter1"></feOffset>
            <feGaussianBlur stdDeviation="4" in="shadowOffsetOuter1" result="shadowBlurOuter1"></feGaussianBlur>
            <feColorMatrix values="0 0 0 0 0   0 0 0 0 0   0 0 0 0 0  0 0 0 0.252076049 0" type="matrix" in="shadowBlurOuter1"></feColorMatrix>
        </filter>
        <polygon id="path-7" points="43.8521078 6.44301752 44.7798847 6.88332236 47.6821776 1.17387133 46.6300768 0.639633396"></polygon>
        <filter x="-221.9%" y="-184.2%" width="987.7%" height="628.5%" filterUnits="objectBoundingBox" id="filter-8">
            <feOffset dx="9" dy="5" in="SourceAlpha" result="shadowOffsetOuter1"></feOffset>
            <feGaussianBlur stdDeviation="4" in="shadowOffsetOuter1" result="shadowBlurOuter1"></feGaussianBlur>
            <feColorMatrix values="0 0 0 0 0   0 0 0 0 0   0 0 0 0 0  0 0 0 0.252076049 0" type="matrix" in="shadowBlurOuter1"></feColorMatrix>
        </filter>
        <polygon id="path-9" points="60.634091 13.2355528 61.6167996 13.6744145 64.0343984 6.65980916 62.9703713 6.45298323"></polygon>
        <filter x="-250.0%" y="-159.2%" width="1099.9%" height="557.0%" filterUnits="objectBoundingBox" id="filter-10">
            <feOffset dx="9" dy="5" in="SourceAlpha" result="shadowOffsetOuter1"></feOffset>
            <feGaussianBlur stdDeviation="4" in="shadowOffsetOuter1" result="shadowBlurOuter1"></feGaussianBlur>
            <feColorMatrix values="0 0 0 0 0   0 0 0 0 0   0 0 0 0 0  0 0 0 0.252076049 0" type="matrix" in="shadowBlurOuter1"></feColorMatrix>
        </filter>
        <polygon id="path-11" points="19.0959364 28.223414 8.22190918 33.9402284 10.2986636 21.8318212 1.5013908 13.2565996 13.6589228 11.4900068 19.0959364 0.473414002 24.5329499 11.4900068 36.6904819 13.2565996 27.8932091 21.8318212 29.9699635 33.9402284"></polygon>
        <filter x="-13.8%" y="-16.2%" width="143.8%" height="139.1%" filterUnits="objectBoundingBox" id="filter-12">
            <feOffset dx="3" dy="3" in="SourceAlpha" result="shadowOffsetOuter1"></feOffset>
            <feGaussianBlur stdDeviation="2.5" in="shadowOffsetOuter1" result="shadowBlurOuter1"></feGaussianBlur>
            <feComposite in="shadowBlurOuter1" in2="SourceAlpha" operator="out" result="shadowBlurOuter1"></feComposite>
            <feColorMatrix values="0 0 0 0 0   0 0 0 0 0   0 0 0 0 0  0 0 0 0.252076049 0" type="matrix" in="shadowBlurOuter1"></feColorMatrix>
        </filter>
        <polygon id="path-13" points="14.0095417 10.2271757 16.2149736 11.4392693 18.6173504 6.1057066 16.7948496 4.97063956"></polygon>
        <filter x="-184.5%" y="-177.8%" width="837.9%" height="610.2%" filterUnits="objectBoundingBox" id="filter-14">
            <feOffset dx="9" dy="5" in="SourceAlpha" result="shadowOffsetOuter1"></feOffset>
            <feGaussianBlur stdDeviation="4" in="shadowOffsetOuter1" result="shadowBlurOuter1"></feGaussianBlur>
            <feColorMatrix values="0 0 0 0 0   0 0 0 0 0   0 0 0 0 0  0 0 0 0.252076049 0" type="matrix" in="shadowBlurOuter1"></feColorMatrix>
        </filter>
        <polygon id="path-15" points="29.2259719 15.8070423 31.4068029 16.5959304 32.7419767 12.2522142 31.3259844 9.84574427"></polygon>
        <filter x="-241.8%" y="-170.4%" width="1067.0%" height="588.9%" filterUnits="objectBoundingBox" id="filter-16">
            <feOffset dx="9" dy="5" in="SourceAlpha" result="shadowOffsetOuter1"></feOffset>
            <feGaussianBlur stdDeviation="4" in="shadowOffsetOuter1" result="shadowBlurOuter1"></feGaussianBlur>
            <feColorMatrix values="0 0 0 0 0   0 0 0 0 0   0 0 0 0 0  0 0 0 0.252076049 0" type="matrix" in="shadowBlurOuter1"></feColorMatrix>
        </filter>
        <polygon id="path-17" points="19.0959364 28.223414 8.22190918 33.9402284 10.2986636 21.8318212 1.5013908 13.2565996 13.6589228 11.4900068 19.0959364 0.473414002 24.5329499 11.4900068 36.6904819 13.2565996 27.8932091 21.8318212 29.9699635 33.9402284"></polygon>
        <filter x="-13.8%" y="-16.2%" width="143.8%" height="139.1%" filterUnits="objectBoundingBox" id="filter-18">
            <feOffset dx="3" dy="3" in="SourceAlpha" result="shadowOffsetOuter1"></feOffset>
            <feGaussianBlur stdDeviation="2.5" in="shadowOffsetOuter1" result="shadowBlurOuter1"></feGaussianBlur>
            <feComposite in="shadowBlurOuter1" in2="SourceAlpha" operator="out" result="shadowBlurOuter1"></feComposite>
            <feColorMatrix values="0 0 0 0 0   0 0 0 0 0   0 0 0 0 0  0 0 0 0.252076049 0" type="matrix" in="shadowBlurOuter1"></feColorMatrix>
        </filter>
        <polygon id="path-19" points="14.0095417 10.2271757 16.2149736 11.4392693 18.6173504 6.1057066 16.7948496 4.97063956"></polygon>
        <filter x="-184.5%" y="-177.8%" width="837.9%" height="610.2%" filterUnits="objectBoundingBox" id="filter-20">
            <feOffset dx="9" dy="5" in="SourceAlpha" result="shadowOffsetOuter1"></feOffset>
            <feGaussianBlur stdDeviation="4" in="shadowOffsetOuter1" result="shadowBlurOuter1"></feGaussianBlur>
            <feColorMatrix values="0 0 0 0 0   0 0 0 0 0   0 0 0 0 0  0 0 0 0.252076049 0" type="matrix" in="shadowBlurOuter1"></feColorMatrix>
        </filter>
        <polygon id="path-21" points="29.2259719 15.8070423 31.4068029 16.5959304 32.7419767 12.2522142 31.3259844 9.84574427"></polygon>
        <filter x="-241.8%" y="-170.4%" width="1067.0%" height="588.9%" filterUnits="objectBoundingBox" id="filter-22">
            <feOffset dx="9" dy="5" in="SourceAlpha" result="shadowOffsetOuter1"></feOffset>
            <feGaussianBlur stdDeviation="4" in="shadowOffsetOuter1" result="shadowBlurOuter1"></feGaussianBlur>
            <feColorMatrix values="0 0 0 0 0   0 0 0 0 0   0 0 0 0 0  0 0 0 0.252076049 0" type="matrix" in="shadowBlurOuter1"></feColorMatrix>
        </filter>
    </defs>
    <g id="Page-1" stroke="none" stroke-width="1" fill="none" fill-rule="evenodd">
        <g id="Group-7" transform="translate(0.000000, 2.000000)">
            <g id="Group-3">
                <path d="M75.6809816,46.3067485 C76.3558282,45.6523517 77.1635992,45.3251534 78.1042945,45.3251534 L102.030675,45.3251534 C92.3374233,35.7750511 80.6605317,31 67,31 C53.196319,31 41.406953,35.8773006 31.6319018,45.6319018 C27.398773,49.8650307 24.0858896,54.4867076 21.6932515,59.4969325 L53.0736196,59.4969325 C54.8732106,59.4969325 56.406953,60.1308793 57.6748466,61.398773 C58.9427403,62.6666667 59.5766871,64.200409 59.5766871,66 C59.5766871,67.799591 58.9427403,69.3333333 57.6748466,70.601227 C56.406953,71.8691207 54.8732106,72.5030675 53.0736196,72.5030675 L17.6748466,72.5030675 C17.2249489,75.2433538 17,78.0756646 17,81 C17,85.1104294 17.4396728,89.0470348 18.3190184,92.809816 L24.4846626,92.809816 C25.6298569,92.809816 26.601227,93.208589 27.398773,94.006135 C28.2167689,94.8241309 28.6257669,95.805726 28.6257669,96.9509202 C28.6257669,98.0961145 28.2167689,99.0674847 27.398773,99.8650307 C26.601227,100.683027 25.6298569,101.092025 24.4846626,101.092025 L21.0490798,101.092025 C23.4826176,106.633947 27.0102249,111.715746 31.6319018,116.337423 C41.406953,126.112474 53.196319,131 67,131 C79.9447853,131 91.1104294,126.705521 100.496933,118.116564 L80.2208589,118.116564 C78.7484663,118.116564 77.4907975,117.595092 76.4478528,116.552147 C75.4253579,115.529652 74.9141104,114.282209 74.9141104,112.809816 L74.9141104,112.779141 C74.9141104,111.306748 75.4253579,110.04908 76.4478528,109.006135 C77.4907975,107.98364 78.7484663,107.472393 80.2208589,107.472393 L109.546012,107.472393 C113.083845,101.93047 115.364008,95.8670757 116.386503,89.2822086 L106.478528,89.2822086 C105.210634,89.2822086 104.126789,88.8323108 103.226994,87.9325153 C102.327198,87.0327198 101.877301,85.9488753 101.877301,84.6809816 L101.877301,84.6503067 C101.877301,83.3824131 102.327198,82.2985685 103.226994,81.398773 C104.126789,80.4989775 105.210634,80.0490798 106.478528,80.0490798 L117,80.0490798 C116.815951,69.5787321 113.799591,60.2842536 107.95092,52.1656442 L78.1042945,52.1656442 C77.1635992,52.1656442 76.3558282,51.8282209 75.6809816,51.1533742 C75.0265849,50.4989775 74.6993865,49.7014315 74.6993865,48.7607362 L74.6993865,48.7300613 C74.6993865,47.7893661 75.0265849,46.9815951 75.6809816,46.3067485 Z" id="Path" fill="#A1BCF2" fill-rule="nonzero" opacity="0.603259859"></path>
                <g id="Group-2" transform="translate(71.000000, 33.000000) rotate(-285.000000) translate(-71.000000, -33.000000) translate(49.000000, 11.000000)">
                    <g id="Star">
                        <use fill="black" fill-opacity="1" filter="url(#filter-2)" xlink:href="#path-1"></use>
                        <path stroke="#143574" stroke-width="2" d="M33.1893913,37.7741586 L31.0295164,25.1811216 L40.1788933,16.2626832 L27.5347653,14.4253839 L21.8801394,2.96786025 L16.2255134,14.4253839 L3.58138543,16.2626832 L12.7307624,25.1811216 L10.5708875,37.7741586 L21.8801394,31.8285331 L33.1893913,37.7741586 Z" stroke-linejoin="square" fill="#FFFFFF" fill-rule="evenodd"></path>
                    </g>
                    <g id="Path-2">
                        <use fill="black" fill-opacity="1" filter="url(#filter-4)" xlink:href="#path-3"></use>
                        <use fill="#FFFFFF" fill-rule="evenodd" xlink:href="#path-3"></use>
                    </g>
                    <g id="Path-2" transform="translate(35.876181, 15.308338) rotate(79.000000) translate(-35.876181, -15.308338) ">
                        <use fill="black" fill-opacity="1" filter="url(#filter-6)" xlink:href="#path-5"></use>
                        <use fill="#FFFFFF" fill-rule="evenodd" xlink:href="#path-5"></use>
                    </g>
                    <polygon id="Star" fill="#FFCF00" points="21.785405 28.6300105 12.380841 33.5742824 14.1769529 23.1021465 6.56850078 15.6857386 17.083123 14.1578746 21.785405 4.63001053 26.4876871 14.1578746 37.0023093 15.6857386 29.3938572 23.1021465 31.1899691 33.5742824"></polygon>
                </g>
                <g id="Path-2">
                    <use fill="black" fill-opacity="1" filter="url(#filter-8)" xlink:href="#path-7"></use>
                    <use fill="#FFFFFF" fill-rule="evenodd" xlink:href="#path-7"></use>
                </g>
                <g id="Path-2" transform="translate(62.334245, 10.063699) rotate(79.000000) translate(-62.334245, -10.063699) ">
                    <use fill="black" fill-opacity="1" filter="url(#filter-10)" xlink:href="#path-9"></use>
                    <use fill="#FFFFFF" fill-rule="evenodd" xlink:href="#path-9"></use>
                </g>
                <g id="Group-2" transform="translate(109.000000, 72.000000) rotate(-285.000000) translate(-109.000000, -72.000000) translate(90.000000, 53.000000)">
                    <g id="Star">
                        <use fill="black" fill-opacity="1" filter="url(#filter-12)" xlink:href="#path-11"></use>
                        <path stroke="#143574" stroke-width="2" d="M28.6418325,32.1122129 L26.8187286,21.4827013 L34.5415208,13.9548394 L23.8688844,12.4040146 L19.0959364,2.73296546 L14.3229883,12.4040146 L3.65035194,13.9548394 L11.3731441,21.4827013 L9.55004021,32.1122129 L19.0959364,27.0936383 L28.6418325,32.1122129 Z" stroke-linejoin="square" fill="#FFFFFF" fill-rule="evenodd"></path>
                    </g>
                    <g id="Path-2">
                        <use fill="black" fill-opacity="1" filter="url(#filter-14)" xlink:href="#path-13"></use>
                        <use fill="#FFFFFF" fill-rule="evenodd" xlink:href="#path-13"></use>
                    </g>
                    <g id="Path-2" transform="translate(30.983974, 13.220837) rotate(79.000000) translate(-30.983974, -13.220837) ">
                        <use fill="black" fill-opacity="1" filter="url(#filter-16)" xlink:href="#path-15"></use>
                        <use fill="#FFFFFF" fill-rule="evenodd" xlink:href="#path-15"></use>
                    </g>
                    <polygon id="Star" fill="#FFCF00" points="19.258819 25.0340742 11.0298255 29.3603121 12.6014234 20.1971931 5.94402782 13.7078363 15.1443223 12.3709552 19.258819 4.03407417 23.3733158 12.3709552 32.5736103 13.7078363 25.9162147 20.1971931 27.4878126 29.3603121"></polygon>
                </g>
                <g id="Group-2" transform="translate(24.000000, 68.000000) rotate(-285.000000) translate(-24.000000, -68.000000) translate(5.000000, 49.000000)">
                    <g id="Star">
                        <use fill="black" fill-opacity="1" filter="url(#filter-18)" xlink:href="#path-17"></use>
                        <path stroke="#143574" stroke-width="2" d="M28.6418325,32.1122129 L26.8187286,21.4827013 L34.5415208,13.9548394 L23.8688844,12.4040146 L19.0959364,2.73296546 L14.3229883,12.4040146 L3.65035194,13.9548394 L11.3731441,21.4827013 L9.55004021,32.1122129 L19.0959364,27.0936383 L28.6418325,32.1122129 Z" stroke-linejoin="square" fill="#FFFFFF" fill-rule="evenodd"></path>
                    </g>
                    <g id="Path-2">
                        <use fill="black" fill-opacity="1" filter="url(#filter-20)" xlink:href="#path-19"></use>
                        <use fill="#FFFFFF" fill-rule="evenodd" xlink:href="#path-19"></use>
                    </g>
                    <g id="Path-2" transform="translate(30.983974, 13.220837) rotate(79.000000) translate(-30.983974, -13.220837) ">
                        <use fill="black" fill-opacity="1" filter="url(#filter-22)" xlink:href="#path-21"></use>
                        <use fill="#FFFFFF" fill-rule="evenodd" xlink:href="#path-21"></use>
                    </g>
                    <polygon id="Star" fill="#FFCF00" points="19.258819 25.0340742 11.0298255 29.3603121 12.6014234 20.1971931 5.94402782 13.7078363 15.1443223 12.3709552 19.258819 4.03407417 23.3733158 12.3709552 32.5736103 13.7078363 25.9162147 20.1971931 27.4878126 29.3603121"></polygon>
                </g>
            </g>
        </g>
    </g>
</svg>