<?xml version="1.0" encoding="UTF-8"?>
<svg width="100px" height="126px" viewBox="0 0 100 126" version="1.1" xmlns="http://www.w3.org/2000/svg" xmlns:xlink="http://www.w3.org/1999/xlink">
    <!-- Generator: Sketch 55.1 (78136) - https://sketchapp.com -->
    <title>updates 2</title>
    <desc>Created with Sketch.</desc>
    <g id="Page-1" stroke="none" stroke-width="1" fill="none" fill-rule="evenodd">
        <g id="updates-2">
            <g id="updates">
                <g id="Group" opacity="0.602980841" transform="translate(0.000000, 31.000000)" fill="#A1BCF2" fill-rule="nonzero">
                    <g id="Layer0_0_FILL-link">
                        <g id="Layer0_0_FILL">
                            <path d="M34.5658537,27.2256098 C36.2829268,27.2256098 37.7463415,27.824187 38.9560976,29.0213415 C40.1658537,30.2184959 40.7707317,31.6666667 40.7707317,33.3658537 C40.7707317,35.0650407 40.1658537,36.5132114 38.9560976,37.7103659 C37.7463415,38.9075203 36.2829268,39.5060976 34.5658537,39.5060976 L0.76097561,39.5060976 C0.351219512,42.0951553 0.146341463,44.7694439 0.146341463,47.5289634 C0.146341463,51.4160196 0.556097561,55.1329911 1.37560976,58.679878 L7.28780488,58.679878 C8.3804878,58.679878 9.30731707,59.0564024 10.0682927,59.8094512 C10.8487805,60.5818089 11.2390244,61.5086382 11.2390244,62.589939 C11.2390244,63.6712398 10.8487805,64.5884146 10.0682927,65.3414634 C9.30731707,66.1138211 8.3804878,66.5 7.28780488,66.5 L4.0097561,66.5 C6.32728659,71.7283489 9.69314024,76.5266213 14.1073171,80.8948171 C23.4341463,90.1244919 34.6829268,94.7393293 47.8536585,94.7393293 C60.1993902,94.7393293 70.8432927,90.6844512 79.7853659,82.5746951 L60.4682927,82.5746951 C59.0634146,82.5746951 57.8634146,82.0823171 56.8682927,81.097561 C55.8926829,80.1321138 55.404878,78.9542683 55.404878,77.5640244 L55.404878,77.535061 C55.404878,76.1448171 55.8926829,74.9573171 56.8682927,73.972561 C57.8634146,73.0071138 59.0634146,72.5243902 60.4682927,72.5243902 L88.4195122,72.5243902 C91.8057927,67.2921946 93.9814024,61.567093 94.9463415,55.3490854 L85.5219512,55.3490854 C84.3121951,55.3490854 83.2780488,54.9242886 82.4195122,54.0746951 C81.5609756,53.2251016 81.1317073,52.2017276 81.1317073,51.0045732 L81.1317073,50.9756098 C81.1317073,49.7784553 81.5609756,48.7550813 82.4195122,47.9054878 C83.2780488,47.0558943 84.3121951,46.6310976 85.5219512,46.6310976 L95.5317073,46.6310976 C95.3823171,36.7464272 92.5042683,27.9705126 86.897561,20.3033537 L58.4487805,20.3033537 C57.5512195,20.3033537 56.7804878,19.9847561 56.1365854,19.347561 C55.5121951,18.7296748 55.2,17.976626 55.2,17.0884146 L55.2,17.0594512 C55.2,16.1712398 55.5121951,15.4085366 56.1365854,14.7713415 C56.7804878,14.1534553 57.5512195,13.8445122 58.4487805,13.8445122 L81.2780488,13.8445122 C72.0272104,4.82723577 60.885747,0.318597561 47.8536585,0.318597561 C34.6829268,0.318597561 23.4341463,4.92378049 14.1073171,14.1341463 C10.068064,18.1397715 6.90708841,22.5035926 4.62439024,27.2256098 L34.5658537,27.2256098 Z" id="Path"></path>
                        </g>
                    </g>
                </g>
                <g id="Group" transform="translate(29.000000, 0.000000)" fill="#70B9FF" fill-rule="nonzero">
                    <g id="Layer0_1_MEMBER_0_MEMBER_0_MEMBER_0_FILL-link">
                        <g id="Layer0_1_MEMBER_0_MEMBER_0_MEMBER_0_FILL">
                            <path d="M70.0688525,27.7012987 C68.8467213,22.0714286 66.1405738,17.0454545 61.9504098,12.6233766 C57.7602459,8.16233766 52.5128415,4.85064935 46.2081967,2.68831169 C39.884153,0.525974026 33.5892077,-0.175324675 27.3233607,0.584415584 C21.0381148,1.34415584 15.4221311,3.37987013 10.4754098,6.69155844 C5.50928962,9.98376623 2.06598361,14.3376623 0.145491803,19.7532468 C2.66734973,18.0974026 6.08155738,17.1720779 10.3881148,16.9772727 C14.0157104,16.8019481 16.809153,17.8636364 18.7684426,20.1623377 C19.1370219,20.5909091 19.4765027,21.0584416 19.7868852,21.5649351 C20.6016393,21.4090909 21.3872951,21.2922078 22.1438525,21.2142857 C27.7501366,20.5714286 32.7647541,21.262987 37.1877049,23.288961 C42.2120219,25.5681818 46.0336066,28.5584416 48.652459,32.2597403 C54.4333333,31.4415584 59.0987705,32.8538961 62.6487705,36.4967532 C66.1405738,40.1201299 67.7603825,42.8961039 67.5081967,44.8246753 C70.4374317,39.0194805 71.2909836,33.3116883 70.0688525,27.7012987 Z" id="Path"></path>
                        </g>
                    </g>
                </g>
                <g id="Group" transform="translate(28.000000, 17.000000)" fill="#8A99BA" fill-rule="nonzero">
                    <g id="Layer0_1_MEMBER_0_MEMBER_0_MEMBER_0_MEMBER_0_FILL-link">
                        <g id="Layer0_1_MEMBER_0_MEMBER_0_MEMBER_0_MEMBER_0_FILL">
                            <path d="M10.4545455,0.336607143 C6.08106061,0.526488095 2.61363636,1.45 0.0522727273,3.10714286 C4.68712121,4.3327381 7.37916667,6.80982143 8.12840909,10.5383929 C9.47007576,9.89970238 12.6761364,9.89970238 17.7465909,10.5383929 C18.182197,10.5901786 18.6265152,10.6678571 19.0795455,10.7714286 C23.6272727,11.8071429 27.8265152,15.3199405 31.6772727,21.3098214 C34.4825758,20.3949405 37.9935606,20.48125 42.2102273,21.56875 C43.1511364,21.8104167 44.0484848,22.103869 44.9022727,22.4491071 C47.8818182,23.6401786 50.3386364,25.4440476 52.2727273,27.8607143 C53.2136364,27.1357143 54.6511364,26.7214286 56.5852273,26.6178571 C57.8397727,26.5488095 59.3034091,26.6178571 60.9761364,26.825 C64.8617424,27.2910714 67.2488636,27.8693452 68.1375,28.5598214 L68.4511364,28.3008929 C68.4511364,28.283631 68.4598485,28.266369 68.4772727,28.2491071 C68.7386364,26.3157738 67.0920455,23.5366071 63.5375,19.9116071 C59.9306818,16.2520833 55.1912879,14.8366071 49.3193182,15.6651786 C46.6708333,11.953869 42.7939394,8.95029762 37.6886364,6.65446429 C33.1931818,4.63482143 28.0965909,3.94434524 22.3988636,4.58303571 C21.6147727,4.66934524 20.8132576,4.79017857 19.9943182,4.94553571 C19.6806818,4.42767857 19.3409091,3.95297619 18.975,3.52142857 C16.9712121,1.22559524 14.1310606,0.163988095 10.4545455,0.336607143 Z" id="Path"></path>
                        </g>
                    </g>
                </g>
                <g id="Group" transform="translate(27.000000, 2.000000)" stroke="#143574" stroke-linecap="round" stroke-linejoin="round" stroke-width="2">
                    <g id="Layer0_1_MEMBER_0_MEMBER_0_MEMBER_1_1_STROKES-link">
                        <path d="M41.872541,1.31847134 C43.3260193,1.65907643 44.7809373,2.07903397 46.2372951,2.57834395 C46.9550546,2.83227176 47.6825137,3.09596603 48.4196721,3.36942675 C53.7737705,5.53757962 58.2937158,8.58471338 61.9795082,12.510828 C65.6555253,16.4178676 68.1967821,20.7834727 69.6032787,25.6076433 M70.6508197,32.0535032 C70.7450105,36.2580381 69.7071689,40.5162122 67.5372951,44.8280255 C67.5178962,44.8475584 67.5081967,44.8670913 67.5081967,44.8866242 C67.5081967,45.0233546 67.4887978,45.1503185 67.45,45.2675159 C67.45,45.2870488 67.4403005,45.3065817 67.4209016,45.3261146 C67.3627049,45.2675159 67.2948087,45.1991507 67.2172131,45.1210191 L26.2758197,91.6191083 M67.4209016,45.3261146 L67.5081967,44.8866242 L67.2172131,45.1210191 C66.3442623,44.4373673 63.9969945,43.8611465 60.1754098,43.3923567 C58.5265027,43.1970276 57.0812842,43.1286624 55.8397541,43.1872611 C53.9386612,43.2849257 52.522541,43.7048832 51.5913934,44.4471338 L24.85,88.3961783 M23.395082,85.1732484 L44.3459016,39.0267516 C43.5117486,38.6751592 42.6290984,38.3821656 41.6979508,38.1477707 C37.5465847,37.0539278 34.0935792,36.9660297 31.3389344,37.8840764 L17.3717213,83.2687898 M67.5372951,44.8280255 C67.8088798,42.8942675 66.189071,40.110828 62.6778689,36.477707 C59.1278689,32.8250531 54.4624317,31.4089172 48.6815574,32.2292994 L44.3459016,39.0267516 C47.2751366,40.218259 49.6903005,42.0250531 51.5913934,44.4471338 M6.34344262,9.96178344 C7.58542734,8.73792463 8.9724492,7.61478238 10.5045082,6.59235669 C12.3862022,5.32271762 14.3551913,4.24840764 16.4114754,3.36942675 C19.8062842,1.9044586 23.4532787,0.937579618 27.352459,0.468789809 C29.9372876,0.15450836 32.5270417,0.0910264066 35.1217213,0.278343949 M7.79836066,82.5070064 L8.14754098,27.1019108 C7.41038251,23.3711253 4.76243169,20.8904459 0.203688525,19.6598726 L3.4045082,84.0012739 M4.39385246,12.1152866 C2.59301251,14.3486764 1.1962912,16.8635383 0.203688525,19.6598726 C2.72554645,18.0191083 6.1397541,17.1010616 10.4463115,16.9057325 C14.0545082,16.7299363 16.8479508,17.7944798 18.8266393,20.0993631 C19.1952186,20.529087 19.525,20.9978769 19.8159836,21.5057325 C20.6307377,21.3494692 21.4260929,21.2322718 22.2020492,21.1541401 C27.8083333,20.5095541 32.8229508,21.2029724 37.2459016,23.2343949 C42.2702186,25.5197452 46.0821038,28.5180467 48.6815574,32.2292994 M19.8159836,21.5057325 L18.9430328,27.3363057 C23.4047814,28.3715499 27.5367486,31.8874735 31.3389344,37.8840764 M11.3192623,81.3643312 L18.9430328,27.3363057 C18.4968579,27.2386412 18.0506831,27.1605096 17.6045082,27.1019108 C12.6189891,26.4573248 9.46666667,26.4573248 8.14754098,27.1019108" id="Layer0_1_MEMBER_0_MEMBER_0_MEMBER_1_1_STROKES"></path>
                    </g>
                </g>
                <g id="Group" transform="translate(26.000000, 82.000000)">
                    <g id="Layer0_1_MEMBER_0_MEMBER_0_MEMBER_1_MEMBER_0_FILL-link" fill-rule="nonzero">
                        <g id="Layer0_1_MEMBER_0_MEMBER_0_MEMBER_1_MEMBER_0_FILL">
                            <path d="M17.1574468,26.85 L21.6851064,25.41 L17.9617021,21.03 L6.34468085,17.4 L0.119148936,16.89 L3.93191489,22.89 L3.96170213,22.89 L12.2425532,25.38 L15.4,26.31 L17.1574468,26.85 L17.1574468,26.85 Z M23.6808511,20.64 L25.8553191,15.45 L27.493617,11.52 L24.5446809,4.83 L17.9617021,21.03 L21.6851064,25.41 L23.6808511,20.64 L23.6808511,20.64 Z M24.5446809,4.83 L12.1829787,0.48 L6.34468085,17.4 L17.9617021,21.03 L24.5446809,4.83 L24.5446809,4.83 Z M15.9659574,5.34 L18.9148936,6.69 L16.3829787,13.23 L17.9021277,14.1 L13.2553191,16.56 L11.6468085,10.95 L13.4042553,11.82 L15.9659574,5.34 L15.9659574,5.34 Z M12.1829787,0.48 L4.08085106,2.91 L3.00851064,6.72 L1.72765957,11.16 L0.119148936,16.89 L6.34468085,17.4 L12.1829787,0.48 Z" id="Shape" fill="#FFFFFF"></path>
                            <polygon id="Path" stroke="#143574" fill="#FFCC00" points="18.9148936 6.69 15.9659574 5.34 13.4042553 11.82 11.6468085 10.95 13.2553191 16.56 17.9021277 14.1 16.3829787 13.23"></polygon>
                        </g>
                    </g>
                    <g id="Layer0_1_MEMBER_0_MEMBER_0_MEMBER_1_MEMBER_0_1_STROKES-link" stroke="#143574" stroke-linecap="round" stroke-linejoin="round" stroke-width="2">
                        <path d="M12.1829787,0.48 L4.08085106,2.91 L3.00851064,6.72 M1.74255319,11.16 L0.119148936,16.89 L6.34468085,17.4 L12.1829787,0.48 L24.5446809,4.83 L27.493617,11.52 L25.8553191,15.45 M23.6808511,20.64 L21.6851064,25.41 L17.1574468,26.85 L15.4,26.325 M12.2425532,25.38 L3.96170213,22.89 L3.93191489,22.89 L0.119148936,16.89 M24.5446809,4.83 L17.9617021,21.03 L21.6851064,25.41 M6.34468085,17.4 L17.9617021,21.03" id="Layer0_1_MEMBER_0_MEMBER_0_MEMBER_1_MEMBER_0_1_STROKES"></path>
                    </g>
                </g>
            </g>
        </g>
    </g>
</svg>