<?xml version="1.0" encoding="UTF-8"?>
<svg width="91px" height="109px" viewBox="0 0 91 109" version="1.1" xmlns="http://www.w3.org/2000/svg" xmlns:xlink="http://www.w3.org/1999/xlink">
    <!-- Generator: Sketch 55.1 (78136) - https://sketchapp.com -->
    <title>crash_1 2</title>
    <desc>Created with Sketch.</desc>
    <g id="Page-1" stroke="none" stroke-width="1" fill="none" fill-rule="evenodd">
        <g id="crash_1-2">
            <g id="crash_1">
                <g id="Group" opacity="0.609770275" transform="translate(0.000000, 17.000000)" fill="#A1BCF2" fill-rule="nonzero">
                    <g id="Layer0_0_FILL-link">
                        <g id="Layer0_0_FILL">
                            <path d="M32.7655488,26.3658537 C34.3931911,26.3658537 35.7803862,26.9455285 36.9271341,28.104878 C38.0738821,29.2642276 38.6472561,30.6666667 38.6472561,32.3121951 C38.6472561,33.9577236 38.0738821,35.3601626 36.9271341,36.5195122 C35.7803862,37.6788618 34.3931911,38.2585366 32.7655488,38.2585366 L0.721341463,38.2585366 C0.332926829,40.7658346 0.138719512,43.355672 0.138719512,46.0280488 C0.138719512,49.7923558 0.527134146,53.3919493 1.30396341,56.8268293 L6.90823171,56.8268293 C7.94400407,56.8268293 8.82256098,57.1914634 9.54390244,57.9207317 C10.2837398,58.6686992 10.6536585,59.5662602 10.6536585,60.6134146 C10.6536585,61.6605691 10.2837398,62.5487805 9.54390244,63.2780488 C8.82256098,64.0260163 7.94400407,64.4 6.90823171,64.4 L3.80091463,64.4 C5.99774041,69.4632431 9.18828919,74.1099911 13.372561,78.3402439 C22.2136179,87.2784553 32.8765244,91.747561 45.3612805,91.747561 C57.0640053,91.747561 67.1535379,87.8207317 75.629878,79.9670732 L57.3189024,79.9670732 C55.9871951,79.9670732 54.8496951,79.4902439 53.9064024,78.5365854 C52.9816057,77.601626 52.5192073,76.4609756 52.5192073,75.1146341 L52.5192073,75.0865854 C52.5192073,73.7402439 52.9816057,72.5902439 53.9064024,71.6365854 C54.8496951,70.701626 55.9871951,70.2341463 57.3189024,70.2341463 L83.8143293,70.2341463 C87.024241,65.167178 89.0865377,59.622869 90.0012195,53.6012195 L81.0676829,53.6012195 C79.920935,53.6012195 78.9406504,53.1898374 78.1268293,52.3670732 C77.3130081,51.5443089 76.9060976,50.553252 76.9060976,49.3939024 L76.9060976,49.3658537 C76.9060976,48.2065041 77.3130081,47.2154472 78.1268293,46.3926829 C78.9406504,45.5699187 79.920935,45.1585366 81.0676829,45.1585366 L90.5560976,45.1585366 C90.4144881,35.5860137 87.6863377,27.0872332 82.3716463,19.6621951 L55.4045732,19.6621951 C54.5537602,19.6621951 53.8231707,19.3536585 53.2128049,18.7365854 C52.620935,18.1382114 52.325,17.4089431 52.325,16.5487805 L52.325,16.5207317 C52.325,15.6605691 52.620935,14.9219512 53.2128049,14.304878 C53.8231707,13.7065041 54.5537602,13.4073171 55.4045732,13.4073171 L77.0448171,13.4073171 C68.2757932,4.67479675 57.7146143,0.308536585 45.3612805,0.308536585 C32.8765244,0.308536585 22.2136179,4.76829268 13.372561,13.6878049 C9.54368569,17.5669366 6.54734423,21.7929529 4.38353659,26.3658537 L32.7655488,26.3658537 Z" id="Path"></path>
                        </g>
                    </g>
                </g>
                <g id="Group" transform="translate(27.000000, 3.000000)" fill="#FFFFFF" fill-rule="nonzero">
                    <g id="Layer0_1_MEMBER_0_FILL-link">
                        <g id="Layer0_1_MEMBER_0_FILL">
                            <path d="M40.672,5.07692308 C40.672,1.76752137 39.0684444,0.112820513 35.8613333,0.112820513 L5.13866667,0.112820513 C1.93155556,0.112820513 0.328,1.76752137 0.328,5.07692308 L0.328,82.5846154 C0.328,85.8940171 1.93155556,87.5487179 5.13866667,87.5487179 L35.8613333,87.5487179 C39.0684444,87.5487179 40.672,85.8940171 40.672,82.5846154 L40.672,5.07692308 Z" id="Path"></path>
                        </g>
                    </g>
                </g>
                <g id="Group" transform="translate(37.000000, 0.000000)" fill="#FFCF00" fill-rule="nonzero">
                    <g id="Layer0_1_MEMBER_1_FILL-link">
                        <g id="Layer0_1_MEMBER_1_FILL">
                            <polygon id="Path" points="16.9716667 0.528629032 7.395 0.528629032 0.255 18.5854839 5.66666667 18.5854839 1.75666667 39.5915323 6.29 39.5915323 6.29 68.9165323 16.6883333 30.4657258 11.05 30.4657258"></polygon>
                        </g>
                    </g>
                </g>
                <g id="Group" transform="translate(24.000000, 1.000000)" stroke="#143574" stroke-linecap="round" stroke-linejoin="round" stroke-width="2">
                    <g id="Layer0_1_MEMBER_2_1_STROKES-link">
                        <path d="M31.8592105,0.479487179 L36.6947368,0.479487179 C39.9368421,0.479487179 41.5578947,2.13418803 41.5578947,5.44358974 L41.5578947,15.7102564 M0.331578947,51.0230769 L0.331578947,5.44358974 C0.331578947,2.13418803 1.95263158,0.479487179 5.19473684,0.479487179 L20.0881579,0.479487179 L13.125,18.1358974 L19.2868421,18.1358974 L15.2526316,39.9102564 L19.0381579,39.9102564 L19.0381579,69.6666667 L23.5697368,52.7153846 M24.675,48.5974359 L29.7039474,29.7282051 L24.0118421,29.7282051 L28.5986842,6.51538462 M41.5578947,80.074359 L41.5578947,82.5846154 C41.5578947,85.8940171 39.9368421,87.5487179 36.6947368,87.5487179 L5.19473684,87.5487179 C1.95263158,87.5487179 0.331578947,85.8940171 0.331578947,82.5846154 L0.331578947,58.0461538 M41.5578947,22.9589744 L41.5578947,77.1692308" id="Layer0_1_MEMBER_2_1_STROKES"></path>
                    </g>
                </g>
            </g>
        </g>
    </g>
</svg>