<svg id="Layer_1" data-name="Layer 1" xmlns="http://www.w3.org/2000/svg" xmlns:xlink="http://www.w3.org/1999/xlink" viewBox="0 0 34.7 34.5"><defs><style>.cls-1{fill:#cad7f5;}.cls-2{fill:#f8cf48;}.cls-3{fill:url(#radial-gradient);}.cls-4{fill:none;stroke:#000;stroke-linecap:round;stroke-miterlimit:10;}</style><radialGradient id="radial-gradient" cx="25.39" cy="31.25" r="10.56" gradientTransform="translate(2.72 -1.72) rotate(4.06)" gradientUnits="userSpaceOnUse"><stop offset="0" stop-color="#fff"/><stop offset="0.5" stop-color="#fff"/><stop offset="1" stop-color="#f0f7ff"/></radialGradient></defs><title>events icon1</title><path class="cls-1" d="M39.59,28.47h2a17.42,17.42,0,0,1-17.3,16,16.81,16.81,0,0,1-6.3-1.2h5.4a1.1,1.1,0,0,0,0-2.2h-9.5a17.57,17.57,0,0,1-6.5-9.7h4.4a1.1,1.1,0,1,0,0-2.2H7a11.48,11.48,0,0,1-.1-1.9,10.87,10.87,0,0,1,.1-1.8h1.3a1.1,1.1,0,0,0,0-2.2h-.9a17.19,17.19,0,0,1,3.4-6.9c.1-.1.1-.2.2-.3A17.13,17.13,0,0,1,23.49,10h1.4a17.15,17.15,0,0,1,7.5,2.1h-2.2a1.1,1.1,0,0,0,0,2.2h5.5a9.27,9.27,0,0,1,1.4,1.4,5.72,5.72,0,0,1,.7.8h0a16.86,16.86,0,0,1,3.7,9.8h-2a1.11,1.11,0,0,0-1.1,1.1A1.28,1.28,0,0,0,39.59,28.47Z" transform="translate(-6.89 -9.97)"/><circle class="cls-2" cx="15" cy="10.21" r="9.74"/><path class="cls-3" d="M23,41.94l-6.39-5.17a2,2,0,0,1-.69-2c.37-1.47,1.51-3.42,5.09-1.49a.66.66,0,0,0,1-.58c0-2.34-.08-7.64-.1-10.34a2.56,2.56,0,0,1,2.06-2.59C25,19.61,26,20,26.11,22.34L26.32,28a.92.92,0,0,0,.81.88l4.44.5a4.42,4.42,0,0,1,2.31.92,3.4,3.4,0,0,1,1.34,3L35,38.56a4,4,0,0,1-1.54,3.09,3.14,3.14,0,0,1-2,.68l-7.26.2a1,1,0,0,1-.47-.12Z" transform="translate(-6.89 -9.97)"/><path class="cls-4" d="M25.06,42l-1.8.05a1,1,0,0,1-.47-.12L22,41.44l-6.39-5.17a2,2,0,0,1-.69-2c.37-1.47,1.51-3.42,5.09-1.49a.66.66,0,0,0,1-.58c0-2.34-.08-7.64-.1-10.34a2.56,2.56,0,0,1,2.06-2.59c1.05-.18,2.12.23,2.21,2.55l.21,5.61a.92.92,0,0,0,.81.88l4.44.5a4.42,4.42,0,0,1,2.31.92,3.4,3.4,0,0,1,1.34,3L34,38.06a4,4,0,0,1-1.54,3.09,3.14,3.14,0,0,1-2,.68l-1.89.05" transform="translate(-6.89 -9.97)"/><path class="cls-4" d="M15.06,15.84a9.89,9.89,0,0,0,5.87,15.4" transform="translate(-6.89 -9.97)"/><path class="cls-4" d="M29.94,28.76a9.9,9.9,0,0,0-12-15.6" transform="translate(-6.89 -9.97)"/></svg>