<svg id="Layer_1" data-name="Layer 1" xmlns="http://www.w3.org/2000/svg" viewBox="0 0 35.41 34.5"><defs><style>.cls-1{fill:#cad7f5;}.cls-2{fill:#fff;}.cls-3{fill:#f8cf48;}.cls-4{fill:none;stroke:#000;stroke-linecap:round;stroke-miterlimit:10;}</style></defs><title>feedback icon1</title><path class="cls-1" d="M40.09,27.81h2a17.42,17.42,0,0,1-17.3,16,16.81,16.81,0,0,1-6.3-1.2h5.4a1.1,1.1,0,0,0,0-2.2h-9.5a17.57,17.57,0,0,1-6.5-9.7h4.4a1.1,1.1,0,1,0,0-2.2H7.59a11.48,11.48,0,0,1-.1-1.9,10.87,10.87,0,0,1,.1-1.8h1.3a1.1,1.1,0,0,0,0-2.2H8a17.19,17.19,0,0,1,3.4-6.9c.1-.1.1-.2.2-.3a17.13,17.13,0,0,1,12.5-6.1h1.4a17.15,17.15,0,0,1,7.5,2.1h-2.2a1.1,1.1,0,1,0,0,2.2h5.5a9.27,9.27,0,0,1,1.4,1.4,5.72,5.72,0,0,1,.7.8h0a16.86,16.86,0,0,1,3.7,9.8h-2a1.11,1.11,0,0,0-1.1,1.1A1,1,0,0,0,40.09,27.81Z" transform="translate(-7.49 -9.31)"/><path class="cls-2" d="M39.09,14.81H17.49a3.69,3.69,0,0,0-3.7,3.7v12a3.69,3.69,0,0,0,3.7,3.7h3.7v3.7a.68.68,0,0,0,.7.7c.2,0,.3-.1.4-.1l5.8-4.3h7.2a3.69,3.69,0,0,0,3.7-3.7V26" transform="translate(-7.49 -9.31)"/><path class="cls-3" d="M41.19,15.11l-3-3a.78.78,0,0,0-1.1,0l-9,9a.76.76,0,0,0-.2.5v3a.68.68,0,0,0,.7.7h3a.76.76,0,0,0,.5-.2l9-9A.61.61,0,0,0,41.19,15.11Z" transform="translate(-7.49 -9.31)"/><path class="cls-4" d="M38.49,20.71l3.6-3.6a.61.61,0,0,0,.1-1l-3-3a.78.78,0,0,0-1.1,0l-9,9a.76.76,0,0,0-.2.5v3a.68.68,0,0,0,.7.7h3a.76.76,0,0,0,.5-.2l3.37-3.37" transform="translate(-7.49 -9.31)"/><path class="cls-4" d="M25.19,20.31h-7.5" transform="translate(-7.49 -9.31)"/><path class="cls-4" d="M25.19,24.81h-7.5" transform="translate(-7.49 -9.31)"/><path class="cls-4" d="M32.69,29.31h-15" transform="translate(-7.49 -9.31)"/><path class="cls-4" d="M20.69,33.81" transform="translate(-7.49 -9.31)"/><path class="cls-4" d="M37.11,33.5a3.7,3.7,0,0,0,.58-2V27" transform="translate(-7.49 -9.31)"/><path class="cls-4" d="M12.85,17.9a3.79,3.79,0,0,0-.36,1.61v12a3.69,3.69,0,0,0,3.7,3.7h3.7v3.7a.68.68,0,0,0,.7.7c.2,0,.3-.1.4-.1l5.8-4.3H34a3.64,3.64,0,0,0,2-.57" transform="translate(-7.49 -9.31)"/><path class="cls-4" d="M29.69,15.81H16.19a3.65,3.65,0,0,0-1.9.52" transform="translate(-7.49 -9.31)"/></svg>