<?xml version="1.0" encoding="UTF-8"?>
<svg width="97px" height="116px" viewBox="0 0 97 116" version="1.1" xmlns="http://www.w3.org/2000/svg" xmlns:xlink="http://www.w3.org/1999/xlink">
    <!-- Generator: Sketch 55.1 (78136) - https://sketchapp.com -->
    <title>filter 2</title>
    <desc>Created with Sketch.</desc>
    <g id="Page-1" stroke="none" stroke-width="1" fill="none" fill-rule="evenodd">
        <g id="filter-2">
            <g id="filter">
                <g id="Group" transform="translate(34.000000, 25.000000)">
                    <g id="Layer0_0_FILL-link" fill="#FFFFFF" fill-rule="nonzero">
                        <g id="Layer0_0_FILL">
                            <path d="M1.9,0.4 C1.45555556,0.433333333 1.01111111,0.475 0.566666667,0.525 C1.01111111,0.608333333 1.45555556,0.691666667 1.9,0.775 L1.9,0.4 Z" id="Path"></path>
                        </g>
                    </g>
                    <g id="Layer0_0_1_STROKES-link" stroke="#2853AF" stroke-linecap="round" stroke-linejoin="round" stroke-width="2">
                        <path d="M0.566666667,0.525 C1.01111111,0.475 1.45555556,0.433333333 1.9,0.4" id="Layer0_0_1_STROKES"></path>
                    </g>
                </g>
                <g id="Group" opacity="0.600074405" transform="translate(0.000000, 18.000000)" fill="#A1BCF2" fill-rule="nonzero">
                    <g id="Layer0_1_FILL-link">
                        <g id="Layer0_1_FILL">
                            <path d="M86.5310976,48.1634146 L96.6746951,48.1634146 C96.4972561,37.9650407 93.5892276,28.9119919 87.9506098,21.0042683 L59.1759146,21.0042683 C58.2690041,21.0042683 57.4902439,20.6756098 56.8396341,20.0182927 C56.2087398,19.3808943 55.8932927,18.604065 55.8932927,17.6878049 L55.8932927,17.6579268 C55.8932927,16.7416667 56.2087398,15.954878 56.8396341,15.297561 C57.4902439,14.6601626 58.2690041,14.3414634 59.1759146,14.3414634 L82.2429878,14.3414634 C72.8978659,5.03943089 61.6403455,0.388414634 48.4704268,0.388414634 C35.1625,0.388414634 23.7965447,5.13902439 14.372561,14.6402439 C10.2914634,18.7634146 7.09756098,23.2650407 4.79085366,28.145122 L35.0442073,28.145122 C36.7791667,28.145122 38.2578252,28.7626016 39.4801829,29.997561 C40.7025407,31.2325203 41.3137195,32.7264228 41.3137195,34.4792683 C41.3137195,36.2321138 40.7025407,37.7260163 39.4801829,38.9609756 C38.2578252,40.195935 36.7791667,40.8134146 35.0442073,40.8134146 L0.916768293,40.8134146 C0.483028455,43.4825203 0.266158537,46.2412602 0.266158537,49.0896341 C0.266158537,53.0932927 0.69004065,56.9276423 1.53780488,60.5926829 L7.4820122,60.5926829 C8.58607724,60.5926829 9.52256098,60.9810976 10.2914634,61.7579268 C11.0800813,62.5546748 11.4743902,63.5107724 11.4743902,64.6262195 C11.4743902,65.7416667 11.0800813,66.6878049 10.2914634,67.4646341 C9.52256098,68.2613821 8.58607724,68.6597561 7.4820122,68.6597561 L4.16981707,68.6597561 C6.51595528,74.0577236 9.91686992,79.0075203 14.372561,83.5091463 C23.7965447,93.0302846 35.1625,97.7908537 48.4704268,97.7908537 C60.9503049,97.7908537 71.714939,93.6079268 80.7643293,85.2420732 L61.2164634,85.2420732 C59.7969512,85.2420732 58.5844512,84.7341463 57.5789634,83.7182927 C56.5931911,82.7223577 56.1003049,81.5073171 56.1003049,80.0731707 L56.1003049,80.0432927 C56.1003049,78.6091463 56.5931911,77.3841463 57.5789634,76.3682927 C58.5844512,75.3723577 59.7969512,74.8743902 61.2164634,74.8743902 L89.4884146,74.8743902 C92.899187,69.4764228 95.0974593,63.5705285 96.0832317,57.1567073 L86.5310976,57.1567073 C85.3087398,57.1567073 84.2638211,56.7184959 83.3963415,55.8420732 C82.5288618,54.9656504 82.095122,53.9099593 82.095122,52.675 L82.095122,52.645122 C82.095122,51.4101626 82.5288618,50.3544715 83.3963415,49.4780488 C84.2638211,48.601626 85.3087398,48.1634146 86.5310976,48.1634146 Z" id="Path"></path>
                        </g>
                    </g>
                </g>
                <g id="Group" transform="translate(14.000000, 18.000000)">
                    <g id="Layer0_2_FILL-link" fill="#FFFFFF" fill-rule="nonzero">
                        <g id="Layer0_2_FILL">
                            <path d="M0.818055556,2.68333333 L0.818055556,3.26666667 C21.3699074,7.5962963 41.5342593,7.46666667 61.3111111,2.87777778 C41.7925926,0.103703704 21.6282407,0.0388888889 0.818055556,2.68333333 Z" id="Path"></path>
                        </g>
                    </g>
                    <g id="Layer0_2_1_STROKES-link" transform="translate(0.667950, 0.472582)" stroke="#2853AF" stroke-linecap="round" stroke-linejoin="round" stroke-width="1.99999825">
                        <path d="M0.125701766,2.1802162 C20.9358687,-0.464225924 41.1002029,-0.399411166 60.6187043,2.37466047" id="Layer0_2_1_STROKES"></path>
                    </g>
                </g>
                <g id="Group" transform="translate(36.000000, 0.000000)" fill-rule="nonzero">
                    <g id="Layer0_3_MEMBER_0_FILL-link">
                        <g id="Layer0_3_MEMBER_0_FILL">
                            <path d="M18.1195122,3.64878049 L17.1243902,1.61707317 C17.0138211,1.20243902 16.7235772,0.870731707 16.2536585,0.62195122 C15.8390244,0.428455285 15.396748,0.359349593 14.9268293,0.414634146 C14.899187,0.414634146 14.8853659,0.428455285 14.8853659,0.456097561 L11.0707317,1.45121951 L11.0292683,1.45121951 C10.5593496,1.61707317 10.2,1.90731707 9.95121951,2.32195122 C9.70243902,2.73658537 9.60569106,3.15121951 9.66097561,3.56585366 L9.66097561,3.60731707 L9.9097561,5.80487805 C9.35691057,6.16422764 8.84552846,6.57886179 8.37560976,7.04878049 L6.26097561,6.2195122 C5.84634146,6.05365854 5.40406504,6.0398374 4.93414634,6.17804878 C4.46422764,6.34390244 4.11869919,6.63414634 3.89756098,7.04878049 L1.94878049,10.4073171 L1.90731707,10.4487805 C1.68617886,10.8634146 1.58943089,11.2780488 1.61707317,11.6926829 C1.61707317,11.7203252 1.63089431,11.7479675 1.65853659,11.7756098 C1.76910569,12.3284553 2.03170732,12.7292683 2.44634146,12.9780488 L2.40487805,12.9365854 L4.10487805,14.3463415 C3.96666667,14.9821138 3.88373984,15.6178862 3.85609756,16.2536585 L1.86585366,17.1658537 L1.90731707,17.1658537 C1.43739837,17.3317073 1.09186992,17.6219512 0.870731707,18.0365854 L0.829268293,18.0780488 C0.608130081,18.4926829 0.580487805,18.9349593 0.746341463,19.404878 L1.78292683,23.2195122 C1.83821138,23.4406504 1.90731707,23.6479675 1.9902439,23.8414634 L2.03170732,23.8829268 C2.1699187,24.0764228 2.3495935,24.2560976 2.57073171,24.4219512 C2.79186992,24.5601626 3.02682927,24.6292683 3.27560976,24.6292683 C3.46910569,24.6845528 3.66260163,24.698374 3.85609756,24.6707317 L3.89756098,24.6707317 L6.09512195,24.4634146 C6.45447154,24.9886179 6.84146341,25.4723577 7.25609756,25.9146341 L6.46829268,28.0292683 L6.46829268,27.9878049 C6.27479675,28.4300813 6.26097561,28.8723577 6.42682927,29.3146341 L6.42682927,29.3560976 C6.56504065,29.8260163 6.86910569,30.1853659 7.33902439,30.4341463 L7.29756098,30.4341463 L10.6560976,32.4243902 C11.0707317,32.6731707 11.5268293,32.7422764 12.0243902,32.6317073 C12.5219512,32.5211382 12.9089431,32.2723577 13.1853659,31.8853659 L13.1439024,31.9268293 L14.5536585,30.1853659 C15.2170732,30.3235772 15.8666667,30.4203252 16.502439,30.4756098 L17.3731707,32.3414634 C17.5390244,32.8666667 17.8569106,33.2398374 18.3268293,33.4609756 C18.7691057,33.7097561 19.2390244,33.7650407 19.7365854,33.6268293 L23.4682927,32.5902439 L23.4268293,32.5902439 C23.9243902,32.4796748 24.3252033,32.2170732 24.6292683,31.802439 C24.9056911,31.3878049 24.9886179,30.9178862 24.8780488,30.3926829 L24.6707317,28.2365854 C25.2235772,27.904878 25.7349593,27.5317073 26.204878,27.1170732 L28.2365854,27.904878 L28.195122,27.8634146 C28.6650407,28.0845528 29.1487805,28.1121951 29.6463415,27.9463415 L29.604878,27.9463415 C30.102439,27.7804878 30.4756098,27.4764228 30.7243902,27.0341463 L32.6731707,23.6756098 C32.9219512,23.2609756 32.9772358,22.7910569 32.8390244,22.2658537 L32.8390244,22.3073171 C32.7560976,21.8097561 32.5211382,21.4227642 32.1341463,21.1463415 L32.1756098,21.1463415 L30.4341463,19.7780488 C30.5723577,19.1146341 30.6552846,18.4512195 30.6829268,17.7878049 L32.6731707,16.9170732 C33.1430894,16.7512195 33.4886179,16.4471545 33.7097561,16.004878 L33.7097561,16.0463415 C33.9308943,15.604065 33.9723577,15.1341463 33.8341463,14.6365854 L32.8390244,10.8634146 C32.7560976,10.6146341 32.6455285,10.4073171 32.5073171,10.2414634 C32.3691057,9.99268293 32.1894309,9.79918699 31.9682927,9.66097561 C31.7747967,9.52276423 31.5674797,9.4398374 31.3463415,9.41219512 C31.1252033,9.38455285 30.9178862,9.39837398 30.7243902,9.45365854 L28.5268293,9.66097561 C28.1398374,9.10813008 27.7390244,8.58292683 27.3243902,8.08536585 L28.1121951,6.05365854 C28.2504065,5.61138211 28.2780488,5.16910569 28.195122,4.72682927 L28.195122,4.68536585 C28.001626,4.21544715 27.697561,3.8699187 27.2829268,3.64878049 L23.9243902,1.65853659 L23.9243902,1.61707317 C23.4544715,1.36829268 22.998374,1.31300813 22.5560976,1.45121951 C22.0308943,1.56178862 21.6300813,1.79674797 21.3536585,2.15609756 L19.9853659,3.85609756 C19.3495935,3.71788618 18.7276423,3.64878049 18.1195122,3.64878049 L18.1195122,3.64878049 Z M15.4243902,2.40487805 L15.4243902,2.36341463 L16.5853659,4.89268293 C16.6130081,5.08617886 16.7512195,5.23821138 17,5.34878049 C17.1658537,5.43170732 17.3178862,5.47317073 17.4560976,5.47317073 C18.3682927,5.50081301 19.2528455,5.61138211 20.1097561,5.80487805 C20.3585366,5.94308943 20.5520325,5.95691057 20.6902439,5.84634146 C20.8284553,5.76341463 20.9528455,5.66666667 21.0634146,5.55609756 L21.104878,5.55609756 L22.8878049,3.35853659 L22.8463415,3.35853659 C22.8739837,3.33089431 22.901626,3.31707317 22.9292683,3.31707317 L22.9707317,3.31707317 L26.2878049,5.22439024 C26.3154472,5.25203252 26.3430894,5.26585366 26.3707317,5.26585366 C26.3707317,5.29349593 26.3707317,5.32113821 26.3707317,5.34878049 L25.3756098,7.96097561 L25.3756098,8.00243902 C25.2097561,8.22357724 25.195935,8.41707317 25.3341463,8.58292683 C25.3617886,8.80406504 25.4170732,8.92845528 25.5,8.95609756 C26.1634146,9.59186992 26.7300813,10.296748 27.2,11.0707317 C27.2276423,11.2365854 27.3520325,11.3747967 27.5731707,11.4853659 L27.6146341,11.4853659 C27.7252033,11.5682927 27.8772358,11.6097561 28.0707317,11.6097561 L28.1121951,11.6097561 L30.8487805,11.2780488 C30.904065,11.3056911 30.9593496,11.3195122 31.0146341,11.3195122 L32.0097561,15.0926829 L31.9682927,15.0512195 C31.9682927,15.0788618 31.9682927,15.1065041 31.9682927,15.1341463 C31.9406504,15.1617886 31.899187,15.203252 31.8439024,15.2585366 L29.4804878,16.3365854 C29.2317073,16.3642276 29.0520325,16.502439 28.9414634,16.7512195 L28.9414634,16.7926829 C28.9138211,16.8756098 28.8861789,16.9585366 28.8585366,17.0414634 C28.8308943,17.0691057 28.8170732,17.1105691 28.8170732,17.1658537 C28.8170732,18.1056911 28.7065041,19.0178862 28.4853659,19.902439 C28.4577236,19.9300813 28.4439024,19.9577236 28.4439024,19.9853659 C28.4439024,20.095935 28.4577236,20.2065041 28.4853659,20.3170732 C28.4577236,20.5658537 28.5544715,20.7455285 28.7756098,20.8560976 L30.9731707,22.597561 C30.9731707,22.6252033 30.9869919,22.6666667 31.0146341,22.7219512 L29.0658537,26.0804878 C29.0382114,26.0528455 29.0105691,26.0390244 28.9829268,26.0390244 L26.2878049,25.0853659 C26.2325203,25.0577236 26.1772358,25.0439024 26.1219512,25.0439024 C26.0113821,25.0439024 25.8869919,25.0715447 25.7487805,25.1268293 C25.6658537,25.1544715 25.5829268,25.1821138 25.5,25.2097561 C25.4447154,25.2097561 25.3894309,25.2373984 25.3341463,25.2926829 C24.6707317,25.9284553 23.9382114,26.4813008 23.1365854,26.9512195 C23.0813008,26.9788618 23.0398374,27.0203252 23.0121951,27.0756098 C22.9292683,27.1585366 22.8739837,27.2414634 22.8463415,27.3243902 C22.7357724,27.4902439 22.7219512,27.697561 22.804878,27.9463415 L22.7634146,27.8634146 L23.0121951,30.6414634 C22.9845528,30.6414634 22.9707317,30.6552846 22.9707317,30.6829268 C22.9430894,30.7105691 22.9292683,30.7382114 22.9292683,30.7658537 L19.197561,31.7609756 L19.1146341,31.7609756 L19.1146341,31.7195122 L17.995122,29.1487805 C17.9398374,28.9552846 17.8154472,28.803252 17.6219512,28.6926829 C17.3731707,28.5268293 17.1658537,28.499187 17,28.6097561 C16.1154472,28.6097561 15.2585366,28.4853659 14.4292683,28.2365854 C14.401626,28.2089431 14.3601626,28.195122 14.304878,28.195122 C14.2219512,28.195122 14.1390244,28.195122 14.0560976,28.195122 C14.0284553,28.195122 14.000813,28.195122 13.9731707,28.195122 C13.696748,28.2504065 13.5170732,28.402439 13.4341463,28.6512195 L11.7341463,30.6829268 L11.7341463,30.7243902 C11.6788618,30.7520325 11.6373984,30.7796748 11.6097561,30.8073171 L11.5682927,30.8073171 L11.6097561,30.7658537 L8.25121951,28.8170732 C8.22400915,28.7898628 8.19636687,28.7760417 8.16829268,28.7756098 C8.19550305,28.7751778 8.20932419,28.7613567 8.2097561,28.7341463 C8.21018801,28.7613567 8.22400915,28.7613567 8.25121951,28.7341463 L9.24634146,26.0804878 L9.24634146,26.0390244 C9.27398374,25.9284553 9.27398374,25.7902439 9.24634146,25.6243902 C9.24634146,25.4585366 9.17723577,25.2788618 9.03902439,25.0853659 C9.03902439,25.0577236 9.02520325,25.0439024 8.99756098,25.0439024 C8.36178862,24.4357724 7.82276423,23.7585366 7.3804878,23.0121951 C7.32520325,22.8186992 7.20081301,22.6943089 7.00731707,22.6390244 C6.86910569,22.500813 6.70325203,22.4317073 6.5097561,22.4317073 L6.46829268,22.4317073 L3.60731707,22.7634146 L3.60731707,22.7219512 L2.52926829,19.0317073 C2.52926829,19.004065 2.52926829,18.9764228 2.52926829,18.9487805 C2.55691057,18.9211382 2.59837398,18.8934959 2.65365854,18.8658537 L5.18292683,17.7463415 L5.22439024,17.7463415 C5.3902439,17.6634146 5.52845528,17.5528455 5.63902439,17.4146341 C5.63902439,17.3593496 5.65284553,17.3178862 5.6804878,17.2902439 C5.70813008,17.1796748 5.72195122,17.0552846 5.72195122,16.9170732 L5.72195122,16.8756098 C5.7495935,15.9634146 5.88780488,15.0788618 6.13658537,14.2219512 C6.13658537,14.1666667 6.13658537,14.1252033 6.13658537,14.097561 C6.13658537,13.9869919 6.12276423,13.8626016 6.09512195,13.7243902 C5.98455285,13.503252 5.88780488,13.3512195 5.80487805,13.2682927 L3.56585366,11.402439 L3.52439024,11.3609756 C3.52439024,11.3333333 3.53821138,11.3195122 3.56585366,11.3195122 L5.43170732,8.00243902 C5.48699187,8.00243902 5.52845528,8.00243902 5.55609756,8.00243902 C5.58373984,8.00243902 5.62520325,8.00243902 5.6804878,8.00243902 L8.25121951,8.99756098 C8.36178862,9.02520325 8.51382114,9.03902439 8.70731707,9.03902439 C8.76260163,9.03902439 8.80406504,9.03902439 8.83170732,9.03902439 C8.94227642,8.98373984 9.06666667,8.92845528 9.20487805,8.87317073 C9.20487805,8.84552846 9.21869919,8.81788618 9.24634146,8.7902439 C9.9097561,8.15447154 10.6284553,7.60162602 11.402439,7.13170732 C11.5406504,7.04878049 11.6373984,6.93821138 11.6926829,6.8 L11.7341463,6.75853659 C11.9,6.5097561 11.9276423,6.28861789 11.8170732,6.09512195 L11.5268293,3.4 C11.5268293,3.37235772 11.5406504,3.34471545 11.5682927,3.31707317 L11.6512195,3.23414634 L15.3414634,2.32195122 L15.3829268,2.32195122 L15.4243902,2.40487805 L15.4243902,2.40487805 Z M15.5073171,10.4487805 C14.6227642,10.697561 13.8349593,11.0845528 13.1439024,11.6097561 C12.4528455,12.1073171 11.8585366,12.7707317 11.3609756,13.6 C10.8910569,14.401626 10.600813,15.2723577 10.4902439,16.2121951 C10.4073171,17.096748 10.4902439,17.9536585 10.7390244,18.7829268 C10.9325203,19.6398374 11.2918699,20.4276423 11.8170732,21.1463415 C12.3699187,21.8926829 13.0747967,22.4869919 13.9317073,22.9292683 L13.8902439,22.9292683 C14.6918699,23.399187 15.5349593,23.6756098 16.4195122,23.7585366 C17.304065,23.896748 18.1886179,23.8552846 19.0731707,23.6341463 C19.9577236,23.4130081 20.7317073,23.0398374 21.395122,22.5146341 C22.1414634,21.9341463 22.7357724,21.2430894 23.1780488,20.4414634 C23.6756098,19.6121951 23.9520325,18.7829268 24.0073171,17.9536585 C24.1455285,17.0691057 24.104065,16.1845528 23.8829268,15.3 C23.6341463,14.4430894 23.2471545,13.6414634 22.7219512,12.895122 C22.196748,12.1487805 21.5195122,11.5544715 20.6902439,11.1121951 C19.8886179,10.6422764 19.0455285,10.3520325 18.1609756,10.2414634 L18.1195122,10.2414634 C17.2349593,10.1585366 16.3780488,10.2276423 15.5487805,10.4487805 L15.5073171,10.4487805 L15.5073171,10.4487805 Z M14.304878,13.0609756 C14.802439,12.701626 15.3691057,12.4390244 16.004878,12.2731707 C16.6406504,12.1073171 17.2626016,12.0520325 17.8707317,12.1073171 C18.5341463,12.2178862 19.1560976,12.4390244 19.7365854,12.7707317 C20.3170732,13.102439 20.800813,13.5308943 21.1878049,14.0560976 C21.602439,14.5813008 21.8926829,15.1479675 22.0585366,15.7560976 C22.2243902,16.3918699 22.2520325,17.0276423 22.1414634,17.6634146 C22.0585366,18.299187 21.8650407,18.9073171 21.5609756,19.4878049 C21.201626,20.0682927 20.7731707,20.5520325 20.2756098,20.9390244 C19.7780488,21.3536585 19.2113821,21.6439024 18.5756098,21.8097561 L18.5341463,21.8097561 C17.9260163,21.9756098 17.3178862,22.003252 16.7097561,21.8926829 L16.6682927,21.8926829 C16.004878,21.8373984 15.3829268,21.6577236 14.802439,21.3536585 C14.2219512,20.9666667 13.7382114,20.5105691 13.3512195,19.9853659 C12.9642276,19.4601626 12.6878049,18.8934959 12.5219512,18.2853659 C12.3560976,17.6772358 12.3284553,17.0552846 12.4390244,16.4195122 L12.4390244,16.3780488 C12.4666667,15.7146341 12.6463415,15.1065041 12.9780488,14.5536585 C13.3097561,13.9731707 13.7520325,13.4756098 14.304878,13.0609756 Z" id="Shape" fill="#2853AF"></path>
                            <path d="M15.4243902,2.36341463 L15.4243902,2.40487805 L15.3829268,2.32195122 L15.3414634,2.32195122 L11.6512195,3.23414634 L11.5682927,3.31707317 C11.5406504,3.34471545 11.5268293,3.37235772 11.5268293,3.4 L11.8170732,6.09512195 C11.9276423,6.28861789 11.9,6.5097561 11.7341463,6.75853659 L11.6926829,6.8 C11.6373984,6.93821138 11.5406504,7.04878049 11.402439,7.13170732 C10.6284553,7.60162602 9.9097561,8.15447154 9.24634146,8.7902439 C9.21869919,8.81788618 9.20487805,8.84552846 9.20487805,8.87317073 C9.06666667,8.92845528 8.94227642,8.98373984 8.83170732,9.03902439 C8.80406504,9.03902439 8.76260163,9.03902439 8.70731707,9.03902439 C8.51382114,9.03902439 8.36178862,9.02520325 8.25121951,8.99756098 L5.6804878,8.00243902 C5.62520325,8.00243902 5.58373984,8.00243902 5.55609756,8.00243902 C5.52845528,8.00243902 5.48699187,8.00243902 5.43170732,8.00243902 L3.56585366,11.3195122 C3.53821138,11.3195122 3.52439024,11.3333333 3.52439024,11.3609756 L3.56585366,11.402439 L5.80487805,13.2682927 C5.88780488,13.3512195 5.98455285,13.503252 6.09512195,13.7243902 C6.12276423,13.8626016 6.13658537,13.9869919 6.13658537,14.097561 C6.13658537,14.1252033 6.13658537,14.1666667 6.13658537,14.2219512 C5.88780488,15.0788618 5.7495935,15.9634146 5.72195122,16.8756098 L5.72195122,16.9170732 C5.72195122,17.0552846 5.70813008,17.1796748 5.6804878,17.2902439 C5.65284553,17.3178862 5.63902439,17.3593496 5.63902439,17.4146341 C5.52845528,17.5528455 5.3902439,17.6634146 5.22439024,17.7463415 L5.18292683,17.7463415 L2.65365854,18.8658537 C2.59837398,18.8934959 2.55691057,18.9211382 2.52926829,18.9487805 C2.52926829,18.9764228 2.52926829,19.004065 2.52926829,19.0317073 L3.60731707,22.7219512 L3.60731707,22.7634146 L6.46829268,22.4317073 L6.5097561,22.4317073 C6.70325203,22.4317073 6.86910569,22.500813 7.00731707,22.6390244 C7.20081301,22.6943089 7.32520325,22.8186992 7.3804878,23.0121951 C7.82276423,23.7585366 8.36178862,24.4357724 8.99756098,25.0439024 C9.02520325,25.0439024 9.03902439,25.0577236 9.03902439,25.0853659 C9.17723577,25.2788618 9.24634146,25.4585366 9.24634146,25.6243902 C9.27398374,25.7902439 9.27398374,25.9284553 9.24634146,26.0390244 L9.24634146,26.0804878 L8.25121951,28.7341463 C8.22400915,28.7613567 8.21018801,28.7613567 8.2097561,28.7341463 C8.20932419,28.7613567 8.19550305,28.7751778 8.16829268,28.7756098 C8.19636687,28.7760417 8.22400915,28.7898628 8.25121951,28.8170732 L11.6097561,30.7658537 L11.5682927,30.8073171 L11.6097561,30.8073171 C11.6373984,30.7796748 11.6788618,30.7520325 11.7341463,30.7243902 L11.7341463,30.6829268 L13.4341463,28.6512195 C13.5170732,28.402439 13.696748,28.2504065 13.9731707,28.195122 C14.000813,28.195122 14.0284553,28.195122 14.0560976,28.195122 C14.1390244,28.195122 14.2219512,28.195122 14.304878,28.195122 C14.3601626,28.195122 14.401626,28.2089431 14.4292683,28.2365854 C15.2585366,28.4853659 16.1154472,28.6097561 17,28.6097561 C17.1658537,28.499187 17.3731707,28.5268293 17.6219512,28.6926829 C17.8154472,28.803252 17.9398374,28.9552846 17.995122,29.1487805 L19.1146341,31.7195122 L19.1146341,31.7609756 L19.197561,31.7609756 L22.9292683,30.7658537 C22.9292683,30.7382114 22.9430894,30.7105691 22.9707317,30.6829268 C22.9707317,30.6552846 22.9845528,30.6414634 23.0121951,30.6414634 L22.7634146,27.8634146 L22.804878,27.9463415 C22.7219512,27.697561 22.7357724,27.4902439 22.8463415,27.3243902 C22.8739837,27.2414634 22.9292683,27.1585366 23.0121951,27.0756098 C23.0398374,27.0203252 23.0813008,26.9788618 23.1365854,26.9512195 C23.9382114,26.4813008 24.6707317,25.9284553 25.3341463,25.2926829 C25.3894309,25.2373984 25.4447154,25.2097561 25.5,25.2097561 C25.5829268,25.1821138 25.6658537,25.1544715 25.7487805,25.1268293 C25.8869919,25.0715447 26.0113821,25.0439024 26.1219512,25.0439024 C26.1772358,25.0439024 26.2325203,25.0577236 26.2878049,25.0853659 L28.9829268,26.0390244 C29.0105691,26.0390244 29.0382114,26.0528455 29.0658537,26.0804878 L31.0146341,22.7219512 C30.9869919,22.6666667 30.9731707,22.6252033 30.9731707,22.597561 L28.7756098,20.8560976 C28.5544715,20.7455285 28.4577236,20.5658537 28.4853659,20.3170732 C28.4577236,20.2065041 28.4439024,20.095935 28.4439024,19.9853659 C28.4439024,19.9577236 28.4577236,19.9300813 28.4853659,19.902439 C28.7065041,19.0178862 28.8170732,18.1056911 28.8170732,17.1658537 C28.8170732,17.1105691 28.8308943,17.0691057 28.8585366,17.0414634 C28.8861789,16.9585366 28.9138211,16.8756098 28.9414634,16.7926829 L28.9414634,16.7512195 C29.0520325,16.502439 29.2317073,16.3642276 29.4804878,16.3365854 L31.8439024,15.2585366 C31.899187,15.203252 31.9406504,15.1617886 31.9682927,15.1341463 C31.9682927,15.1065041 31.9682927,15.0788618 31.9682927,15.0512195 L32.0097561,15.0926829 L31.0146341,11.3195122 C30.9593496,11.3195122 30.904065,11.3056911 30.8487805,11.2780488 L28.1121951,11.6097561 L28.0707317,11.6097561 C27.8772358,11.6097561 27.7252033,11.5682927 27.6146341,11.4853659 L27.5731707,11.4853659 C27.3520325,11.3747967 27.2276423,11.2365854 27.2,11.0707317 C26.7300813,10.296748 26.1634146,9.59186992 25.5,8.95609756 C25.4170732,8.92845528 25.3617886,8.80406504 25.3341463,8.58292683 C25.195935,8.41707317 25.2097561,8.22357724 25.3756098,8.00243902 L25.3756098,7.96097561 L26.3707317,5.34878049 C26.3707317,5.32113821 26.3707317,5.29349593 26.3707317,5.26585366 C26.3430894,5.26585366 26.3154472,5.25203252 26.2878049,5.22439024 L22.9707317,3.31707317 L22.9292683,3.31707317 C22.901626,3.31707317 22.8739837,3.33089431 22.8463415,3.35853659 L22.8878049,3.35853659 L21.104878,5.55609756 L21.0634146,5.55609756 C20.9528455,5.66666667 20.8284553,5.76341463 20.6902439,5.84634146 C20.5520325,5.95691057 20.3585366,5.94308943 20.1097561,5.80487805 C19.2528455,5.61138211 18.3682927,5.50081301 17.4560976,5.47317073 C17.3178862,5.47317073 17.1658537,5.43170732 17,5.34878049 C16.7512195,5.23821138 16.6130081,5.08617886 16.5853659,4.89268293 L15.4243902,2.36341463 L15.4243902,2.36341463 Z M13.1439024,11.6097561 C13.8349593,11.0845528 14.6227642,10.697561 15.5073171,10.4487805 L15.5487805,10.4487805 C16.3780488,10.2276423 17.2349593,10.1585366 18.1195122,10.2414634 L18.1609756,10.2414634 C19.0455285,10.3520325 19.8886179,10.6422764 20.6902439,11.1121951 C21.5195122,11.5544715 22.196748,12.1487805 22.7219512,12.895122 C23.2471545,13.6414634 23.6341463,14.4430894 23.8829268,15.3 C24.104065,16.1845528 24.1455285,17.0691057 24.0073171,17.9536585 C23.9520325,18.7829268 23.6756098,19.6121951 23.1780488,20.4414634 C22.7357724,21.2430894 22.1414634,21.9341463 21.395122,22.5146341 C20.7317073,23.0398374 19.9577236,23.4130081 19.0731707,23.6341463 C18.1886179,23.8552846 17.304065,23.896748 16.4195122,23.7585366 C15.5349593,23.6756098 14.6918699,23.399187 13.8902439,22.9292683 L13.9317073,22.9292683 C13.0747967,22.4869919 12.3699187,21.8926829 11.8170732,21.1463415 C11.2918699,20.4276423 10.9325203,19.6398374 10.7390244,18.7829268 C10.4902439,17.9536585 10.4073171,17.096748 10.4902439,16.2121951 C10.600813,15.2723577 10.8910569,14.401626 11.3609756,13.6 C11.8585366,12.7707317 12.4528455,12.1073171 13.1439024,11.6097561 Z" id="Shape" fill="#FFCC00"></path>
                        </g>
                    </g>
                </g>
                <g id="Group" transform="translate(13.000000, 11.000000)" fill-rule="nonzero">
                    <g id="Layer0_3_MEMBER_1_FILL-link">
                        <g id="Layer0_3_MEMBER_1_FILL">
                            <path d="M18.6464286,3.34074074 L18.6464286,3.3 C18.5095238,3.00123457 18.3041667,2.78395062 18.0303571,2.64814815 L15.8535714,1.38518519 L15.8535714,1.34444444 C15.552381,1.18148148 15.264881,1.14074074 14.9910714,1.22222222 C14.635119,1.3037037 14.375,1.46666667 14.2107143,1.71111111 L13.3071429,2.77037037 C12.8964286,2.68888889 12.4994048,2.64814815 12.1160714,2.64814815 L11.4589286,1.34444444 C11.4041667,1.07283951 11.2125,0.855555556 10.8839286,0.692592593 C10.6375,0.583950617 10.3636905,0.543209877 10.0625,0.57037037 C10.035119,0.57037037 10.0214286,0.583950617 10.0214286,0.611111111 L7.55714286,1.22222222 L7.51607143,1.22222222 C7.21488095,1.3308642 6.98214286,1.52098765 6.81785714,1.79259259 C6.65357143,2.06419753 6.59880952,2.33580247 6.65357143,2.60740741 L6.77678571,4.03333333 C6.42083333,4.27777778 6.0922619,4.54938272 5.79107143,4.84814815 L4.43571429,4.31851852 C4.16190476,4.20987654 3.87440476,4.1962963 3.57321429,4.27777778 C3.27202381,4.38641975 3.05297619,4.57654321 2.91607143,4.84814815 L1.64285714,7.00740741 L1.60178571,7.00740741 C1.46488095,7.27901235 1.41011905,7.55061728 1.4375,7.82222222 L1.4375,7.86296296 C1.51964286,8.21604938 1.69761905,8.47407407 1.97142857,8.63703704 L3.03928571,9.53333333 C2.95714286,9.94074074 2.90238095,10.3481481 2.875,10.7555556 L1.60178571,11.3259259 C1.30059524,11.4345679 1.08154762,11.6246914 0.944642857,11.8962963 L0.903571429,11.8962963 C0.766666667,12.1679012 0.75297619,12.4530864 0.8625,12.7518519 L1.51964286,15.1962963 C1.57440476,15.3592593 1.62916667,15.4950617 1.68392857,15.6037037 L1.68392857,15.6444444 C1.79345238,15.7530864 1.91666667,15.8617284 2.05357143,15.9703704 C2.19047619,16.0790123 2.34107143,16.1333333 2.50535714,16.1333333 C2.61488095,16.1604938 2.73809524,16.1604938 2.875,16.1333333 L2.91607143,16.1333333 L4.3125,16.0111111 C4.55892857,16.337037 4.81904762,16.6493827 5.09285714,16.9481481 L4.55892857,18.2925926 C4.44940476,18.5641975 4.44940476,18.8358025 4.55892857,19.1074074 L4.55892857,19.1481481 C4.64107143,19.4469136 4.8327381,19.6777778 5.13392857,19.8407407 L5.09285714,19.8407407 L7.26964286,21.1037037 C7.54345238,21.2666667 7.84464286,21.3209877 8.17321429,21.2666667 C8.50178571,21.1851852 8.74821429,21.0222222 8.9125,20.7777778 L8.87142857,20.8185185 L9.81607143,19.6777778 C10.2267857,19.7592593 10.6375,19.8271605 11.0482143,19.8814815 L11.6232143,21.062963 C11.7327381,21.4160494 11.9380952,21.6604938 12.2392857,21.7962963 C12.5404762,21.9592593 12.8416667,21.9864198 13.1428571,21.8777778 L15.5660714,21.2259259 L15.525,21.2259259 C15.8535714,21.1444444 16.1136905,20.9814815 16.3053571,20.737037 C16.4970238,20.4654321 16.5517857,20.1530864 16.4696429,19.8 L16.3464286,18.4555556 C16.702381,18.2382716 17.0309524,17.9938272 17.3321429,17.7222222 L18.6464286,18.2111111 C18.947619,18.3469136 19.2488095,18.3604938 19.55,18.2518519 C19.8785714,18.1432099 20.1113095,17.9530864 20.2482143,17.6814815 L21.5214286,15.5222222 C21.6857143,15.2506173 21.7267857,14.9382716 21.6446429,14.5851852 L21.6446429,14.6259259 C21.589881,14.3 21.4392857,14.0555556 21.1928571,13.8925926 L20.0839286,12.9962963 C20.1660714,12.5888889 20.2208333,12.1679012 20.2482143,11.7333333 L21.5214286,11.162963 C21.822619,11.054321 22.0416667,10.8641975 22.1785714,10.5925926 C22.3428571,10.3209877 22.3702381,10.0222222 22.2607143,9.6962963 L21.6446429,7.29259259 C21.589881,7.12962963 21.5214286,6.99382716 21.4392857,6.88518519 C21.3297619,6.72222222 21.2065476,6.6 21.0696429,6.51851852 C20.9327381,6.43703704 20.7958333,6.38271605 20.6589286,6.35555556 C20.5220238,6.32839506 20.385119,6.34197531 20.2482143,6.3962963 L18.8517857,6.51851852 C18.6053571,6.1654321 18.3452381,5.82592593 18.0714286,5.5 L18.5642857,4.1962963 C18.6738095,3.89753086 18.7011905,3.61234568 18.6464286,3.34074074 L18.6464286,3.34074074 Z M20.3303571,7.53703704 C20.385119,7.56419753 20.4261905,7.57777778 20.4535714,7.57777778 L21.1107143,9.98148148 L21.0696429,9.98148148 L21.0696429,10.0222222 C21.0422619,10.0493827 21.014881,10.0765432 20.9875,10.1037037 L19.4678571,10.7962963 C19.3035714,10.8234568 19.1803571,10.9185185 19.0982143,11.0814815 C19.0982143,11.1358025 19.0845238,11.1901235 19.0571429,11.2444444 C19.0297619,11.2716049 19.0160714,11.2987654 19.0160714,11.3259259 C19.0160714,11.9234568 18.947619,12.5074074 18.8107143,13.0777778 L18.8107143,13.1185185 C18.8107143,13.2 18.8107143,13.2814815 18.8107143,13.362963 C18.8107143,13.5259259 18.8791667,13.6345679 19.0160714,13.6888889 L20.4125,14.8296296 L20.4535714,14.9111111 L19.1803571,17.0703704 C19.1803571,17.0432099 19.1666667,17.0296296 19.1392857,17.0296296 L17.4142857,16.4185185 C17.3595238,16.391358 17.3184524,16.3777778 17.2910714,16.3777778 C17.2089286,16.3777778 17.1267857,16.4049383 17.0446429,16.4592593 C16.989881,16.4592593 16.935119,16.4728395 16.8803571,16.5 C16.8529762,16.5 16.8255952,16.5135802 16.7982143,16.5407407 C16.360119,16.9481481 15.8809524,17.3012346 15.3607143,17.6 C15.3333333,17.6271605 15.3059524,17.654321 15.2785714,17.6814815 C15.2238095,17.7358025 15.1827381,17.7901235 15.1553571,17.8444444 C15.1005952,17.9530864 15.1005952,18.0888889 15.1553571,18.2518519 L15.1142857,18.2111111 L15.2785714,19.962963 C15.2511905,19.962963 15.2375,19.9765432 15.2375,20.0037037 L15.2375,20.0444444 L12.8142857,20.6962963 L12.7732143,20.6962963 L12.7732143,20.6555556 L12.0339286,19.0259259 C12.0065476,18.8901235 11.9244048,18.7950617 11.7875,18.7407407 C11.6232143,18.6320988 11.4863095,18.6049383 11.3767857,18.6592593 C10.8017857,18.6592593 10.2541667,18.591358 9.73392857,18.4555556 C9.70654762,18.4283951 9.67916667,18.4148148 9.65178571,18.4148148 C9.59702381,18.4148148 9.5422619,18.4148148 9.4875,18.4148148 C9.46011905,18.4148148 9.4327381,18.4148148 9.40535714,18.4148148 C9.24107143,18.4419753 9.13154762,18.537037 9.07678571,18.7 L7.96785714,20.0037037 L7.96785714,20.0444444 C7.94047619,20.0444444 7.91309524,20.0580247 7.88571429,20.0851852 L7.88571429,20.0444444 L5.70892857,18.8222222 C5.70892857,18.7954861 5.6952381,18.7819059 5.66785714,18.7814815 C5.6952381,18.7810571 5.70892857,18.7674769 5.70892857,18.7407407 L6.36607143,17.0703704 L6.36607143,17.0296296 C6.39345238,16.9481481 6.39345238,16.8530864 6.36607143,16.7444444 C6.36607143,16.6358025 6.325,16.5271605 6.24285714,16.4185185 C6.24285714,16.391358 6.22916667,16.3777778 6.20178571,16.3777778 C5.79107143,15.9975309 5.44880952,15.562963 5.175,15.0740741 C5.1202381,14.9654321 5.03809524,14.8839506 4.92857143,14.8296296 C4.81904762,14.7481481 4.70952381,14.7074074 4.6,14.7074074 L4.55892857,14.7074074 L2.71071429,14.9111111 L2.0125,12.5074074 L2.0125,12.4666667 C2.03988095,12.4395062 2.0672619,12.4259259 2.09464286,12.4259259 L3.7375,11.6925926 L3.77857143,11.6925926 C3.88809524,11.6382716 3.9702381,11.5703704 4.025,11.4888889 C4.025,11.4617284 4.03869048,11.4345679 4.06607143,11.4074074 C4.06607143,11.3259259 4.06607143,11.2444444 4.06607143,11.162963 L4.06607143,11.1222222 C4.09345238,10.5518519 4.18928571,9.99506173 4.35357143,9.45185185 L4.35357143,9.37037037 C4.35357143,9.28888889 4.33988095,9.20740741 4.3125,9.12592593 C4.2577381,8.99012346 4.20297619,8.89506173 4.14821429,8.84074074 L2.66964286,7.61851852 L2.66964286,7.57777778 L3.90178571,5.45925926 C3.92916667,5.45925926 3.95654762,5.45925926 3.98392857,5.45925926 C4.01130952,5.45925926 4.03869048,5.45925926 4.06607143,5.45925926 L5.70892857,6.07037037 C5.79107143,6.09753086 5.90059524,6.11111111 6.0375,6.11111111 L6.07857143,6.11111111 C6.16071429,6.08395062 6.24285714,6.04320988 6.325,5.98888889 L6.36607143,5.94814815 C6.80416667,5.54074074 7.26964286,5.18765432 7.7625,4.88888889 C7.84464286,4.8345679 7.91309524,4.76666667 7.96785714,4.68518519 L7.96785714,4.64444444 C8.07738095,4.48148148 8.1047619,4.34567901 8.05,4.23703704 L7.84464286,2.48518519 C7.84464286,2.45802469 7.85833333,2.44444444 7.88571429,2.44444444 L7.88571429,2.4037037 L7.92678571,2.4037037 L10.3089286,1.79259259 L10.35,1.79259259 L10.35,1.83333333 L11.1303571,3.46296296 C11.1303571,3.57160494 11.2125,3.66666667 11.3767857,3.74814815 C11.4863095,3.80246914 11.5821429,3.82962963 11.6642857,3.82962963 C12.2666667,3.82962963 12.8416667,3.89753086 13.3892857,4.03333333 C13.5535714,4.11481481 13.6767857,4.12839506 13.7589286,4.07407407 C13.8684524,4.01975309 13.9505952,3.95185185 14.0053571,3.87037037 L14.0464286,3.87037037 L15.1964286,2.44444444 L15.2375,2.44444444 L17.4142857,3.66666667 C17.4142857,3.69382716 17.4279762,3.70740741 17.4553571,3.70740741 L17.4553571,3.74814815 L16.7982143,5.41851852 L16.7982143,5.45925926 C16.6886905,5.59506173 16.6886905,5.71728395 16.7982143,5.82592593 C16.7982143,5.9617284 16.8255952,6.04320988 16.8803571,6.07037037 C17.3184524,6.47777778 17.6880952,6.92592593 17.9892857,7.41481481 C18.0166667,7.52345679 18.0988095,7.61851852 18.2357143,7.7 C18.3178571,7.75432099 18.427381,7.78148148 18.5642857,7.78148148 L20.3303571,7.53703704 L20.3303571,7.53703704 Z M13.7589286,7.45555556 C13.2386905,7.15679012 12.6910714,6.96666667 12.1160714,6.88518519 C11.5410714,6.8308642 10.9797619,6.87160494 10.4321429,7.00740741 C9.85714286,7.17037037 9.33690476,7.42839506 8.87142857,7.78148148 C8.43333333,8.08024691 8.05,8.50123457 7.72142857,9.04444444 C7.4202381,9.56049383 7.2422619,10.117284 7.1875,10.7148148 C7.1327381,11.2851852 7.1875,11.8419753 7.35178571,12.3851852 C7.46130952,12.9283951 7.69404762,13.4308642 8.05,13.8925926 C8.40595238,14.354321 8.8577381,14.7345679 9.40535714,15.0333333 L9.36428571,15.0333333 C9.88452381,15.3320988 10.4321429,15.508642 11.0071429,15.562963 C11.5821429,15.6444444 12.1571429,15.617284 12.7321429,15.4814815 C13.3071429,15.345679 13.8,15.1012346 14.2107143,14.7481481 C14.7035714,14.3950617 15.1005952,13.9604938 15.4017857,13.4444444 C15.7029762,12.9012346 15.8809524,12.3580247 15.9357143,11.8148148 C16.0178571,11.2716049 15.9904762,10.7148148 15.8535714,10.1444444 C15.6892857,9.57407407 15.4291667,9.05802469 15.0732143,8.5962963 C14.7446429,8.10740741 14.3065476,7.72716049 13.7589286,7.45555556 L13.7589286,7.45555556 Z M11.9517857,8.06666667 C12.389881,8.14814815 12.7869048,8.29753086 13.1428571,8.51481481 C13.5261905,8.73209877 13.8410714,9.0037037 14.0875,9.32962963 C14.3613095,9.65555556 14.5529762,10.0222222 14.6625,10.4296296 C14.7720238,10.837037 14.7857143,11.2444444 14.7035714,11.6518519 C14.6488095,12.0592593 14.5255952,12.4530864 14.3339286,12.8333333 C14.114881,13.1864198 13.8410714,13.4987654 13.5125,13.7703704 C13.1839286,14.0148148 12.8142857,14.191358 12.4035714,14.3 L12.3625,14.3 C11.9791667,14.408642 11.5958333,14.4358025 11.2125,14.3814815 L11.1714286,14.3814815 C10.7333333,14.3271605 10.3363095,14.2049383 9.98035714,14.0148148 C9.59702381,13.7703704 9.28214286,13.4716049 9.03571429,13.1185185 C8.78928571,12.7925926 8.61130952,12.4395062 8.50178571,12.0592593 C8.3922619,11.6518519 8.36488095,11.2444444 8.41964286,10.837037 C8.44702381,10.4024691 8.5702381,10.008642 8.78928571,9.65555556 C9.00833333,9.27530864 9.29583333,8.94938272 9.65178571,8.67777778 C9.95297619,8.46049383 10.322619,8.29753086 10.7607143,8.18888889 C11.1714286,8.08024691 11.5684524,8.03950617 11.9517857,8.06666667 Z" id="Shape" fill="#2853AF"></path>
                            <path d="M20.4535714,7.57777778 C20.4261905,7.57777778 20.385119,7.56419753 20.3303571,7.53703704 L18.5642857,7.78148148 C18.427381,7.78148148 18.3178571,7.75432099 18.2357143,7.7 C18.0988095,7.61851852 18.0166667,7.52345679 17.9892857,7.41481481 C17.6880952,6.92592593 17.3184524,6.47777778 16.8803571,6.07037037 C16.8255952,6.04320988 16.7982143,5.9617284 16.7982143,5.82592593 C16.6886905,5.71728395 16.6886905,5.59506173 16.7982143,5.45925926 L16.7982143,5.41851852 L17.4553571,3.74814815 L17.4553571,3.70740741 C17.4279762,3.70740741 17.4142857,3.69382716 17.4142857,3.66666667 L15.2375,2.44444444 L15.1964286,2.44444444 L14.0464286,3.87037037 L14.0053571,3.87037037 C13.9505952,3.95185185 13.8684524,4.01975309 13.7589286,4.07407407 C13.6767857,4.12839506 13.5535714,4.11481481 13.3892857,4.03333333 C12.8416667,3.89753086 12.2666667,3.82962963 11.6642857,3.82962963 C11.5821429,3.82962963 11.4863095,3.80246914 11.3767857,3.74814815 C11.2125,3.66666667 11.1303571,3.57160494 11.1303571,3.46296296 L10.35,1.83333333 L10.35,1.79259259 L10.3089286,1.79259259 L7.92678571,2.4037037 L7.88571429,2.4037037 L7.88571429,2.44444444 C7.85833333,2.44444444 7.84464286,2.45802469 7.84464286,2.48518519 L8.05,4.23703704 C8.1047619,4.34567901 8.07738095,4.48148148 7.96785714,4.64444444 L7.96785714,4.68518519 C7.91309524,4.76666667 7.84464286,4.8345679 7.7625,4.88888889 C7.26964286,5.18765432 6.80416667,5.54074074 6.36607143,5.94814815 L6.325,5.98888889 C6.24285714,6.04320988 6.16071429,6.08395062 6.07857143,6.11111111 L6.0375,6.11111111 C5.90059524,6.11111111 5.79107143,6.09753086 5.70892857,6.07037037 L4.06607143,5.45925926 C4.03869048,5.45925926 4.01130952,5.45925926 3.98392857,5.45925926 C3.95654762,5.45925926 3.92916667,5.45925926 3.90178571,5.45925926 L2.66964286,7.57777778 L2.66964286,7.61851852 L4.14821429,8.84074074 C4.20297619,8.89506173 4.2577381,8.99012346 4.3125,9.12592593 C4.33988095,9.20740741 4.35357143,9.28888889 4.35357143,9.37037037 L4.35357143,9.45185185 C4.18928571,9.99506173 4.09345238,10.5518519 4.06607143,11.1222222 L4.06607143,11.162963 C4.06607143,11.2444444 4.06607143,11.3259259 4.06607143,11.4074074 C4.03869048,11.4345679 4.025,11.4617284 4.025,11.4888889 C3.9702381,11.5703704 3.88809524,11.6382716 3.77857143,11.6925926 L3.7375,11.6925926 L2.09464286,12.4259259 C2.0672619,12.4259259 2.03988095,12.4395062 2.0125,12.4666667 L2.0125,12.5074074 L2.71071429,14.9111111 L4.55892857,14.7074074 L4.6,14.7074074 C4.70952381,14.7074074 4.81904762,14.7481481 4.92857143,14.8296296 C5.03809524,14.8839506 5.1202381,14.9654321 5.175,15.0740741 C5.44880952,15.562963 5.79107143,15.9975309 6.20178571,16.3777778 C6.22916667,16.3777778 6.24285714,16.391358 6.24285714,16.4185185 C6.325,16.5271605 6.36607143,16.6358025 6.36607143,16.7444444 C6.39345238,16.8530864 6.39345238,16.9481481 6.36607143,17.0296296 L6.36607143,17.0703704 L5.70892857,18.7407407 C5.70892857,18.7674769 5.6952381,18.7810571 5.66785714,18.7814815 C5.6952381,18.7819059 5.70892857,18.7954861 5.70892857,18.8222222 L7.88571429,20.0444444 L7.88571429,20.0851852 C7.91309524,20.0580247 7.94047619,20.0444444 7.96785714,20.0444444 L7.96785714,20.0037037 L9.07678571,18.7 C9.13154762,18.537037 9.24107143,18.4419753 9.40535714,18.4148148 C9.4327381,18.4148148 9.46011905,18.4148148 9.4875,18.4148148 C9.5422619,18.4148148 9.59702381,18.4148148 9.65178571,18.4148148 C9.67916667,18.4148148 9.70654762,18.4283951 9.73392857,18.4555556 C10.2541667,18.591358 10.8017857,18.6592593 11.3767857,18.6592593 C11.4863095,18.6049383 11.6232143,18.6320988 11.7875,18.7407407 C11.9244048,18.7950617 12.0065476,18.8901235 12.0339286,19.0259259 L12.7732143,20.6555556 L12.7732143,20.6962963 L12.8142857,20.6962963 L15.2375,20.0444444 L15.2375,20.0037037 C15.2375,19.9765432 15.2511905,19.962963 15.2785714,19.962963 L15.1142857,18.2111111 L15.1553571,18.2518519 C15.1005952,18.0888889 15.1005952,17.9530864 15.1553571,17.8444444 C15.1827381,17.7901235 15.2238095,17.7358025 15.2785714,17.6814815 C15.3059524,17.654321 15.3333333,17.6271605 15.3607143,17.6 C15.8809524,17.3012346 16.360119,16.9481481 16.7982143,16.5407407 C16.8255952,16.5135802 16.8529762,16.5 16.8803571,16.5 C16.935119,16.4728395 16.989881,16.4592593 17.0446429,16.4592593 C17.1267857,16.4049383 17.2089286,16.3777778 17.2910714,16.3777778 C17.3184524,16.3777778 17.3595238,16.391358 17.4142857,16.4185185 L19.1392857,17.0296296 C19.1666667,17.0296296 19.1803571,17.0432099 19.1803571,17.0703704 L20.4535714,14.9111111 L20.4125,14.8296296 L19.0160714,13.6888889 C18.8791667,13.6345679 18.8107143,13.5259259 18.8107143,13.362963 C18.8107143,13.2814815 18.8107143,13.2 18.8107143,13.1185185 L18.8107143,13.0777778 C18.947619,12.5074074 19.0160714,11.9234568 19.0160714,11.3259259 C19.0160714,11.2987654 19.0297619,11.2716049 19.0571429,11.2444444 C19.0845238,11.1901235 19.0982143,11.1358025 19.0982143,11.0814815 C19.1803571,10.9185185 19.3035714,10.8234568 19.4678571,10.7962963 L20.9875,10.1037037 C21.014881,10.0765432 21.0422619,10.0493827 21.0696429,10.0222222 L21.0696429,9.98148148 L21.1107143,9.98148148 L20.4535714,7.57777778 L20.4535714,7.57777778 Z M12.1160714,6.88518519 C12.6910714,6.96666667 13.2386905,7.15679012 13.7589286,7.45555556 C14.3065476,7.72716049 14.7446429,8.10740741 15.0732143,8.5962963 C15.4291667,9.05802469 15.6892857,9.57407407 15.8535714,10.1444444 C15.9904762,10.7148148 16.0178571,11.2716049 15.9357143,11.8148148 C15.8809524,12.3580247 15.7029762,12.9012346 15.4017857,13.4444444 C15.1005952,13.9604938 14.7035714,14.3950617 14.2107143,14.7481481 C13.8,15.1012346 13.3071429,15.345679 12.7321429,15.4814815 C12.1571429,15.617284 11.5821429,15.6444444 11.0071429,15.562963 C10.4321429,15.508642 9.88452381,15.3320988 9.36428571,15.0333333 L9.40535714,15.0333333 C8.8577381,14.7345679 8.40595238,14.354321 8.05,13.8925926 C7.69404762,13.4308642 7.46130952,12.9283951 7.35178571,12.3851852 C7.1875,11.8419753 7.1327381,11.2851852 7.1875,10.7148148 C7.2422619,10.117284 7.4202381,9.56049383 7.72142857,9.04444444 C8.05,8.50123457 8.43333333,8.08024691 8.87142857,7.78148148 C9.33690476,7.42839506 9.85714286,7.17037037 10.4321429,7.00740741 C10.9797619,6.87160494 11.5410714,6.8308642 12.1160714,6.88518519 Z" id="Shape" fill="#FFFFFF"></path>
                        </g>
                    </g>
                </g>
                <g id="Group" transform="translate(15.000000, 22.000000)" fill-rule="nonzero">
                    <g id="Layer0_3_MEMBER_2_MEMBER_0_FILL-link">
                        <g id="Layer0_3_MEMBER_2_MEMBER_0_FILL">
                            <path d="M28.9730769,73.9704 L34.9644231,69.6784 L37.7961538,44.6072 L60.8673077,10.7448 C40.3198718,14.5533333 20.1201923,14.9184 0.268269231,11.84 L26.6182692,44.6072 L28.9730769,73.9704 Z" id="Path" fill="#FFFFFF"></path>
                            <path d="M60.8673077,10.7448 L61.6423077,0.1776 C41.5916667,6.07786667 21.1336538,6.46266667 0.268269231,1.332 L0.268269231,11.84 C20.1201923,14.9184 40.3198718,14.5533333 60.8673077,10.7448 Z" id="Path" fill="#70B9FF"></path>
                        </g>
                    </g>
                </g>
                <g id="Group" transform="translate(13.000000, 20.000000)" stroke="#2853AF" stroke-linecap="round" stroke-linejoin="round" stroke-width="1.99999825">
                    <g id="Layer0_3_MEMBER_2_MEMBER_1_1_STROKES-link" transform="translate(0.571900, 0.347162)">
                        <path d="M26.264086,3.95050192 C38.2113728,4.42701665 50.030957,3.17966926 61.7228387,0.208459748 L61.7228387,4.20277443 M61.7228387,7.98686202 L61.7228387,9.75276956 L37.7998867,43.3050128 L36.863401,51.5459147 M12.5573412,25.8982099 L0.212757479,10.6777687 L0.212757479,0.208459748 C7.61950774,2.03042785 14.9836905,3.20769954 22.3053057,3.74027483 M0.212757479,10.6777687 C7.59112938,12.5557974 14.9553121,13.719054 22.3053057,14.1675384 M35.9694829,59.4924986 L34.9478621,68.2799909 L28.9458404,72.5686235 L26.6046262,43.3050128 L16.8140943,31.1959326 M32.2661077,14.3357201 C42.085018,14.0834476 51.9039283,12.5557974 61.7228387,9.75276956" id="Layer0_3_MEMBER_2_MEMBER_1_1_STROKES"></path>
                    </g>
                </g>
            </g>
        </g>
    </g>
</svg>