<?xml version="1.0" encoding="UTF-8"?>
<svg width="100px" height="118px" viewBox="0 0 100 118" version="1.1" xmlns="http://www.w3.org/2000/svg" xmlns:xlink="http://www.w3.org/1999/xlink">
    <!-- Generator: Sketch 55.1 (78136) - https://sketchapp.com -->
    <title>Group</title>
    <desc>Created with Sketch.</desc>
    <g id="Page-1" stroke="none" stroke-width="1" fill="none" fill-rule="evenodd">
        <g id="Group" transform="translate(0.000000, 1.000000)">
            <path d="M58.6809816,18.3067485 C59.3558282,17.6523517 60.1635992,17.3251534 61.1042945,17.3251534 L85.0306748,17.3251534 C75.3374233,7.77505112 63.6605317,3 50,3 C36.196319,3 24.406953,7.87730061 14.6319018,17.6319018 C10.398773,21.8650307 7.08588957,26.4867076 4.69325153,31.4969325 L36.0736196,31.4969325 C37.8732106,31.4969325 39.406953,32.1308793 40.6748466,33.398773 C41.9427403,34.6666667 42.5766871,36.200409 42.5766871,38 C42.5766871,39.799591 41.9427403,41.3333333 40.6748466,42.601227 C39.406953,43.8691207 37.8732106,44.5030675 36.0736196,44.5030675 L0.674846626,44.5030675 C0.224948875,47.2433538 0,50.0756646 0,53 C0,57.1104294 0.439672802,61.0470348 1.3190184,64.809816 L7.48466258,64.809816 C8.62985685,64.809816 9.60122699,65.208589 10.398773,66.006135 C11.2167689,66.8241309 11.6257669,67.805726 11.6257669,68.9509202 C11.6257669,70.0961145 11.2167689,71.0674847 10.398773,71.8650307 C9.60122699,72.6830266 8.62985685,73.0920245 7.48466258,73.0920245 L4.04907975,73.0920245 C6.48261759,78.6339468 10.0102249,83.7157464 14.6319018,88.3374233 C24.406953,98.1124744 36.196319,103 50,103 C62.9447853,103 74.1104294,98.7055215 83.4969325,90.1165644 L63.2208589,90.1165644 C61.7484663,90.1165644 60.4907975,89.595092 59.4478528,88.5521472 C58.4253579,87.5296524 57.9141104,86.2822086 57.9141104,84.809816 L57.9141104,84.7791411 C57.9141104,83.3067485 58.4253579,82.0490798 59.4478528,81.006135 C60.4907975,79.9836401 61.7484663,79.4723926 63.2208589,79.4723926 L92.5460123,79.4723926 C96.0838446,73.9304703 98.3640082,67.8670757 99.3865031,61.2822086 L89.4785276,61.2822086 C88.2106339,61.2822086 87.1267894,60.8323108 86.2269939,59.9325153 C85.3271984,59.0327198 84.8773006,57.9488753 84.8773006,56.6809816 L84.8773006,56.6503067 C84.8773006,55.3824131 85.3271984,54.2985685 86.2269939,53.398773 C87.1267894,52.4989775 88.2106339,52.0490798 89.4785276,52.0490798 L100,52.0490798 C99.8159509,41.5787321 96.799591,32.2842536 90.9509202,24.1656442 L61.1042945,24.1656442 C60.1635992,24.1656442 59.3558282,23.8282209 58.6809816,23.1533742 C58.0265849,22.4989775 57.6993865,21.7014315 57.6993865,20.7607362 L57.6993865,20.7300613 C57.6993865,19.7893661 58.0265849,18.9815951 58.6809816,18.3067485 Z" id="Path" fill="#A1BCF2" fill-rule="nonzero" opacity="0.603259859"></path>
            <path d="M15.6338879,70.3186319 C15.6356508,73.0455518 17.0063873,74.4098933 19.7460973,74.4116563 L45.9912737,74.4285464 C48.7309837,74.4303077 50.0999572,73.0677292 50.0981959,70.3408092 L50.0646277,18.4208725 L15.6003214,18.3986951 L15.6338879,70.3186319 Z" id="Path" fill="#FFFFFF" fill-rule="nonzero" transform="translate(32.849259, 46.413621) rotate(-7.706202) translate(-32.849259, -46.413621) "></path>
            <path d="M45.2346887,18.7489541 L45.2269657,6.80318534 C45.2252028,4.07626536 43.8544663,2.71192388 41.1147563,2.71016092 L14.8695799,2.69327079 C12.1298699,2.69150953 10.7608964,4.05408804 10.7626577,6.78100802 L10.7703824,18.7267768 L45.2346887,18.7489541 Z" id="Path" fill="#415CB9" fill-rule="nonzero" transform="translate(27.998673, 10.721112) rotate(-7.706202) translate(-27.998673, -10.721112) "></path>
            <path d="M13.5351977,45.4338121 L8.47499119,8.21929052 C8.10758346,5.51724605 9.28147543,3.98340958 11.9966671,3.6177811 L38.3772227,0.0653681092 C41.0924144,-0.300260363 42.6337141,0.867947636 43.0011218,3.56999211 L44.1409208,11.952471" id="Layer1_18_MEMBER_1_1_STROKES-path" stroke="#143574" stroke-width="1.99999151" stroke-linecap="round" stroke-linejoin="round" transform="translate(26.275113, 22.716906) rotate(-0.000507) translate(-26.275113, -22.716906) "></path>
            <path d="M51.2869396,64.5041062 L51.5656267,66.5536683 C51.9330344,69.2557128 50.7591425,70.7895493 48.0439508,71.1551777 L21.6633952,74.7075907 C18.9482035,75.0732192 17.4069038,73.9050112 17.0394961,71.2029667 L14.3152513,51.1679211" id="Layer1_18_MEMBER_1_1_STROKES-path" stroke="#143574" stroke-width="1.99999151" stroke-linecap="round" stroke-linejoin="round" transform="translate(32.973282, 62.970440) rotate(-0.000507) translate(-32.973282, -62.970440) "></path>
            <path d="M44.9458218,17.8706778 L50.9642109,62.1320085" id="Layer1_18_MEMBER_1_1_STROKES-path" stroke="#143574" stroke-width="1.99999151" stroke-linecap="round" stroke-linejoin="round" transform="translate(47.955016, 40.001343) rotate(-0.000507) translate(-47.955016, -40.001343) "></path>
            <polygon id="Path" stroke="#FFFFFF" fill="#415CB9" fill-rule="nonzero" transform="translate(25.752151, 36.825206) rotate(-7.704351) translate(-25.752151, -36.825206) " points="27.6885768 34.3386091 23.8125097 34.3361155 23.8157257 39.3118035 27.6917929 39.3142972"></polygon>
            <polygon id="Layer1_18_MEMBER_2_MEMBER_0_1_STROKES" stroke="#FFFFFF" stroke-width="2.58850636" stroke-linecap="round" stroke-linejoin="round" transform="translate(25.769589, 36.835462) rotate(-3.907548) translate(-25.769589, -36.835462) " points="23.4436651 34.643586 27.4030468 34.1312207 28.0955139 39.0273381 24.1361321 39.5397034"></polygon>
            <polygon id="Path" fill="#415CB9" fill-rule="nonzero" transform="translate(29.309204, 35.160409) rotate(-7.705453) translate(-29.309204, -35.160409) " points="31.2449182 31.5740441 27.3688512 31.5715502 27.3734896 38.7467731 31.2495566 38.749267"></polygon>
            <polygon id="Layer1_18_MEMBER_2_MEMBER_1_1_STROKES" stroke="#FFFFFF" stroke-width="2.14880756" stroke-linecap="round" stroke-linejoin="round" transform="translate(29.327497, 35.179374) rotate(-2.357556) translate(-29.327497, -35.179374) " points="26.8980539 31.8985187 30.7789162 31.3845016 31.7569408 38.4602288 27.8760785 38.9742459"></polygon>
            <polygon id="Path" fill="#415CB9" fill-rule="nonzero" transform="translate(32.872205, 33.605275) rotate(-7.705323) translate(-32.872205, -33.605275) " points="34.807298 29.0579918 30.931231 29.0554979 30.9371116 38.1525576 34.8131787 38.1550515"></polygon>
            <polygon id="Layer1_18_MEMBER_2_MEMBER_2_1_STROKES" stroke="#FFFFFF" stroke-width="2.02137485" stroke-linecap="round" stroke-linejoin="round" transform="translate(32.892248, 33.603958) rotate(-1.002161) translate(-32.892248, -33.603958) " points="30.3507153 29.365013 34.203747 28.849236 35.4337815 37.8429038 31.5807498 38.3586808"></polygon>
            <polygon id="Path" fill="#415CB9" fill-rule="nonzero" transform="translate(36.452243, 32.337464) rotate(-7.706202) translate(-36.452243, -32.337464) " points="38.3868733 27.0746714 34.5108064 27.0721772 34.5176128 37.6002575 38.3936798 37.6027517"></polygon>
            <polygon id="Layer1_18_MEMBER_2_MEMBER_3_1_STROKES" stroke="#FFFFFF" stroke-width="1.99999151" stroke-linecap="round" stroke-linejoin="round" transform="translate(36.453622, 32.340484) rotate(-0.000507) translate(-36.453622, -32.340484) " points="33.8236889 27.3831038 37.6650681 26.8658227 39.0835542 37.2978637 35.242175 37.8151449"></polygon>
            <path d="M31.0610773,49.1351357 C28.7627979,49.5355377 26.9341669,50.6866935 25.5751844,52.5886032 C24.2162018,54.5105329 23.7365609,56.6326636 24.1362616,58.9549954 C24.5359624,61.2773271 25.6950946,63.1091664 27.6136582,64.4505132 C29.5322219,65.79186 31.6406434,66.2623324 33.9389227,65.8619303 C36.2571871,65.4815484 38.0858181,64.3404026 39.4248156,62.438493 C40.7837982,60.5365834 41.2634391,58.4244627 40.8637384,56.1021309 C40.8037833,55.721749 40.7238431,55.3613872 40.6239179,55.0210455 L32.230202,57.6636988 L33.309394,49.0150151 C32.5899327,48.9749749 31.8404937,49.0150151 31.0610773,49.1351357 Z" id="Path" fill="#70B9FF" fill-rule="nonzero"></path>
            <path d="M40.8637384,56.1021309 C41.2634391,58.4244627 40.7837982,60.5365834 39.4248156,62.438493 C38.0858181,64.3404026 36.2571871,65.4815484 33.9389227,65.8619303 C31.6406434,66.2623324 29.5322219,65.79186 27.6136582,64.4505132 C25.6950946,63.1091664 24.5359624,61.2773271 24.1362616,58.9549954 C23.7365609,56.6326636 24.2162018,54.5105329 25.5751844,52.5886032 C26.9341669,50.6866935 28.7627979,49.5355377 31.0610773,49.1351357 C31.8404937,49.0150151 32.5899327,48.9749749 33.309394,49.0150151 L32.230202,57.6636988 L40.6239179,55.0210455 C40.7238431,55.3613872 40.8037833,55.721749 40.8637384,56.1021309 Z" id="Layer1_18_MEMBER_3_1_STROKES" stroke="#FFFFFF" stroke-width="2" stroke-linecap="round" stroke-linejoin="round"></path>
            <path d="M42.2301266,53.7896134 C42.0036827,51.8965741 41.1742503,50.2371126 39.7418291,48.8112289 C38.5958923,47.670522 37.307141,46.9164128 35.8755754,46.5489015 L33.275481,55.0341361 L42.2301266,53.7896134 Z" id="Path" fill="#9643BF" fill-rule="nonzero" transform="translate(37.752804, 50.791519) rotate(-9.704509) translate(-37.752804, -50.791519) "></path>
            <path d="M91,19 L57,19 L57,70.9106267 C57,73.6368756 58.3511269,75 61.0533808,75 L86.9466192,75 C89.6488731,75 91,73.6368756 91,70.9106267 L91,19 Z" id="Path" fill="#FFFFFF" fill-rule="nonzero"></path>
            <path d="M91,19 L91,7.08380952 C91,4.36126984 89.6488731,3 86.9466192,3 L61.0533808,3 C58.3511269,3 57,4.36126984 57,7.08380952 L57,19 L91,19 Z" id="Path" fill="#A241B9" fill-rule="nonzero"></path>
            <path d="M55,43 L55,6.02678571 C55,3.3422619 56.3762288,2 59.1286863,2 L85.8713137,2 C88.6237712,2 90,3.3422619 90,6.02678571 L90,14.3549107" id="Layer1_19_MEMBER_1_1_STROKES-path" stroke="#143574" stroke-width="1.99999964" stroke-linecap="round" stroke-linejoin="round"></path>
            <path d="M89.5,67.9797676 L89.5,69.0184754 C89.5,71.710636 88.6237712,73 85.8713137,73 L59.1286863,73 C56.3762288,73 55,71.6539197 55,68.9617591 L55,49" id="Layer1_19_MEMBER_1_1_STROKES-path" stroke="#143574" stroke-width="1.99999964" stroke-linecap="round" stroke-linejoin="round"></path>
            <path d="M89.5,20 L89.5,65" id="Layer1_19_MEMBER_1_1_STROKES-path" stroke="#143574" stroke-width="1.99999964" stroke-linecap="round" stroke-linejoin="round"></path>
            <polygon id="Path" fill="#415CB9" fill-rule="nonzero" points="74 30 74 31.9026846 74 39 78 39 78 30"></polygon>
            <polygon id="Path" fill="#415CB9" fill-rule="nonzero" points="77 28 77 29.4985507 77 39 81 39 81 28"></polygon>
            <polygon id="Path" fill="#415CB9" fill-rule="nonzero" points="70 32 70 34.1446809 70 39 74 39 74 32"></polygon>
            <polygon id="Path" fill="#415CB9" fill-rule="nonzero" points="70 38 70 33 66 33 66 38"></polygon>
            <polygon id="Path" fill="#415CB9" fill-rule="nonzero" points="74 30 74 31.9026846 74 39 78 39 78 30"></polygon>
            <polygon id="Path" fill="#415CB9" fill-rule="nonzero" points="77 28 77 29.4985507 77 39 81 39 81 28"></polygon>
            <polygon id="Path" fill="#415CB9" fill-rule="nonzero" points="70 32 70 34.1446809 70 39 74 39 74 32"></polygon>
            <polygon id="Path" fill="#415CB9" fill-rule="nonzero" points="70 38 70 33 66 33 66 38"></polygon>
            <polygon id="Layer1_19_MEMBER_2_1_STROKES-path" stroke="#FFFFFF" stroke-width="2" stroke-linecap="round" stroke-linejoin="round" points="66 33.8028986 69.7195122 33.8028986 69.7195122 31.5072464 73.4390244 31.5072464 73.4390244 29.4985507 77.1585366 29.4985507 77.1585366 28 81 28 81 39 77.1585366 39 73.4390244 39 69.7195122 39 66 39"></polygon>
            <path d="M69.5,38 L69.5,33 L69.5,38 Z" id="Layer1_19_MEMBER_2_1_STROKES-path" stroke="#FFFFFF" stroke-width="2" stroke-linecap="round" stroke-linejoin="round"></path>
            <path d="M77.5,39 L77.5,30 L77.5,39 Z" id="Layer1_19_MEMBER_2_1_STROKES-path" stroke="#FFFFFF" stroke-width="2" stroke-linecap="round" stroke-linejoin="round"></path>
            <path d="M73.5,39 L73.5,32 L73.5,39 Z" id="Layer1_19_MEMBER_2_1_STROKES-path" stroke="#FFFFFF" stroke-width="2" stroke-linecap="round" stroke-linejoin="round"></path>
            <path d="M73.7226148,49.270318 C73.0217903,49.090106 72.2809187,49 71.5,49 C69.1572438,49 67.1548881,49.8309776 65.4929329,51.4929329 C63.8309776,53.1548881 63,55.1572438 63,57.5 C63,59.8627797 63.8309776,61.8651355 65.4929329,63.5070671 C67.1548881,65.1690224 69.1572438,66 71.5,66 C73.8427562,66 75.8451119,65.1690224 77.5070671,63.5070671 C79.1690224,61.8651355 80,59.8627797 80,57.5 C80,57.1195524 79.9799764,56.7591284 79.9399293,56.4187279 L71.1996466,57.6201413 L73.7226148,49.270318 Z" id="Path" fill="#70B9FF" fill-rule="nonzero"></path>
            <path d="M80,57.5 C80,59.8627797 79.1690224,61.8651355 77.5070671,63.5070671 C75.8451119,65.1690224 73.8427562,66 71.5,66 C69.1572438,66 67.1548881,65.1690224 65.4929329,63.5070671 C63.8309776,61.8651355 63,59.8627797 63,57.5 C63,55.1572438 63.8309776,53.1548881 65.4929329,51.4929329 C67.1548881,49.8309776 69.1572438,49 71.5,49 C72.2809187,49 73.0217903,49.090106 73.7226148,49.270318 L71.1996466,57.6201413 L79.9399293,56.4187279 C79.9799764,56.7591284 80,57.1195524 80,57.5 Z" id="Layer1_19_MEMBER_3_1_STROKES" stroke="#FFFFFF" stroke-width="2" stroke-linecap="round" stroke-linejoin="round"></path>
            <path d="M83,54.8201439 C82.7739726,53.0359712 81.9417808,51.4724221 80.5034247,50.1294964 C79.3527397,49.0551559 78.0582192,48.3453237 76.619863,48 L74,56 L83,54.8201439 Z" id="Path" fill="#9643BF" fill-rule="nonzero"></path>
            <path d="M37,76 C37.6481765,79.6290952 38.2957255,82.2343994 38.942647,83.8159126 C39.5910588,85.3999447 41.7043776,87.5424304 45.2826035,90.2433697 C48.8577704,92.9391901 51.227097,95.1388781 52.3905832,96.8424337 C53.5561871,98.5493207 54.3141708,100.697007 54.6645343,103.285491 C55.0159959,105.87617 55.0912923,108.231864 54.8904235,110.352574 C54.6875154,112.468978 54.1253023,114.351453 53.2037843,116" id="Layer1_20_MEMBER_0_1_STROKES" stroke="#2550AD" stroke-width="2" stroke-linecap="round" stroke-linejoin="round"></path>
            <polygon id="Path" fill="#2650AF" fill-rule="nonzero" transform="translate(36.452434, 75.063585) rotate(-7.481350) translate(-36.452434, -75.063585) " points="34.4579878 73.8717165 34.4594834 76.2529615 38.4468793 76.2554542 38.4453837 73.8742092"></polygon>
            <polygon id="Layer1_20_MEMBER_1_1_STROKES" stroke="#2550AD" stroke-width="1.99999314" stroke-linecap="round" stroke-linejoin="round" points="34 74.5387018 38.6348102 74 39 76.4612982 34.3651898 77"></polygon>
            <polygon id="Path" fill="#2650AF" fill-rule="nonzero" points="76 74 72 74 72 77 76 77"></polygon>
            <polygon id="Layer1_21_1_STROKES" stroke="#2550AD" stroke-width="2" stroke-linecap="round" stroke-linejoin="round" points="76 74 72 74 72 77 76 77"></polygon>
            <path d="M73,76 C71.6648306,79.2006127 69.9079541,81.7241422 67.7293704,83.5705882 C65.5555196,85.4221324 62.5062282,87.8589951 58.581496,90.8811765 C54.657947,93.8999326 53.2544652,97.6062071 54.3710504,102" id="Layer1_21_MEMBER_0_1_STROKES" stroke="#2550AD" stroke-width="2" stroke-linecap="round" stroke-linejoin="round"></path>
        </g>
    </g>
</svg>