<?xml version="1.0" encoding="UTF-8"?>
<svg width="100px" height="114px" viewBox="0 0 100 114" version="1.1" xmlns="http://www.w3.org/2000/svg" xmlns:xlink="http://www.w3.org/1999/xlink">
    <!-- Generator: Sketch 55.1 (78136) - https://sketchapp.com -->
    <title>Group 6</title>
    <desc>Created with Sketch.</desc>
    <defs>
        <circle id="path-1" cx="56.9593685" cy="56.7686097" r="56.5"></circle>
    </defs>
    <g id="Page-1" stroke="none" stroke-width="1" fill="none" fill-rule="evenodd">
        <g id="Group-6" transform="translate(-8.000000, -5.000000)">
            <path d="M66.6809816,33.3067485 C67.3558282,32.6523517 68.1635992,32.3251534 69.1042945,32.3251534 L93.0306748,32.3251534 C83.3374233,22.7750511 71.6605317,18 58,18 C44.196319,18 32.406953,22.8773006 22.6319018,32.6319018 C18.398773,36.8650307 15.0858896,41.4867076 12.6932515,46.4969325 L44.0736196,46.4969325 C45.8732106,46.4969325 47.406953,47.1308793 48.6748466,48.398773 C49.9427403,49.6666667 50.5766871,51.200409 50.5766871,53 C50.5766871,54.799591 49.9427403,56.3333333 48.6748466,57.601227 C47.406953,58.8691207 45.8732106,59.5030675 44.0736196,59.5030675 L8.67484663,59.5030675 C8.22494888,62.2433538 8,65.0756646 8,68 C8,72.1104294 8.4396728,76.0470348 9.3190184,79.809816 L15.4846626,79.809816 C16.6298569,79.809816 17.601227,80.208589 18.398773,81.006135 C19.2167689,81.8241309 19.6257669,82.805726 19.6257669,83.9509202 C19.6257669,85.0961145 19.2167689,86.0674847 18.398773,86.8650307 C17.601227,87.6830266 16.6298569,88.0920245 15.4846626,88.0920245 L12.0490798,88.0920245 C14.4826176,93.6339468 18.0102249,98.7157464 22.6319018,103.337423 C32.406953,113.112474 44.196319,118 58,118 C70.9447853,118 82.1104294,113.705521 91.4969325,105.116564 L71.2208589,105.116564 C69.7484663,105.116564 68.4907975,104.595092 67.4478528,103.552147 C66.4253579,102.529652 65.9141104,101.282209 65.9141104,99.809816 L65.9141104,99.7791411 C65.9141104,98.3067485 66.4253579,97.0490798 67.4478528,96.006135 C68.4907975,94.9836401 69.7484663,94.4723926 71.2208589,94.4723926 L100.546012,94.4723926 C104.083845,88.9304703 106.364008,82.8670757 107.386503,76.2822086 L97.4785276,76.2822086 C96.2106339,76.2822086 95.1267894,75.8323108 94.2269939,74.9325153 C93.3271984,74.0327198 92.8773006,72.9488753 92.8773006,71.6809816 L92.8773006,71.6503067 C92.8773006,70.3824131 93.3271984,69.2985685 94.2269939,68.398773 C95.1267894,67.4989775 96.2106339,67.0490798 97.4785276,67.0490798 L108,67.0490798 C107.815951,56.5787321 104.799591,47.2842536 98.9509202,39.1656442 L69.1042945,39.1656442 C68.1635992,39.1656442 67.3558282,38.8282209 66.6809816,38.1533742 C66.0265849,37.4989775 65.6993865,36.7014315 65.6993865,35.7607362 L65.6993865,35.7300613 C65.6993865,34.7893661 66.0265849,33.9815951 66.6809816,33.3067485 Z" id="Path" fill="#A1BCF2" fill-rule="nonzero" opacity="0.603259859"></path>
            <g id="woman" transform="translate(62.000000, 62.000000) rotate(5.000000) translate(-62.000000, -62.000000) translate(5.000000, 5.000000)">
                <mask id="mask-2" fill="white">
                    <use xlink:href="#path-1"></use>
                </mask>
                <use id="Mask" fill="#737373" opacity="0" xlink:href="#path-1"></use>
                <g mask="url(#mask-2)" id="Group">
                    <g transform="translate(-10.659859, -0.135761)">
                        <g transform="translate(30.461538, 15.176471)">
                            <g id="Layer0_0_FILL-link" fill-rule="nonzero">
                                <g id="Layer0_0_FILL">
                                    <path d="M64.3553629,13.0842857 C63.8037456,10.8205685 62.9150286,8.617217 61.6892122,6.47423134 C61.1069494,5.47819575 60.4633958,4.49725161 59.7585513,3.53139891 C59.513388,3.16920415 59.252902,2.82210084 58.9770933,2.49008898 C58.0883764,1.4035047 57.0617551,0.618749382 55.8972295,0.135823035 L37.6019192,2.89755808 C29.1131404,4.5576174 22.8614766,7.95319328 18.8469277,13.0842857 C18.3872466,13.6879436 17.9428881,14.3217845 17.5138523,14.9858082 C18.0041789,15.4385517 19.4291905,16.2836728 21.7888872,17.5211715 C24.1485838,18.7586703 25.4203684,20.6451013 25.6042408,23.1804647 C25.7881133,25.6856451 25.2058505,27.9342709 23.8574524,29.9263421 C22.4784089,31.8882304 20.7469432,33.0804548 18.6630553,33.5030153 L18.6170871,33.5030153 C17.4525615,33.7746614 16.2727132,33.895393 15.0775422,33.8652101 C12.4113914,33.7746614 10.1742764,32.9144488 8.36619718,31.2845724 C7.96780684,30.9223777 7.61538462,30.5450914 7.30893051,30.1527138 C7.09441263,33.020089 6.54279523,35.9931043 5.65407832,39.0717598 C5.56214208,39.3434058 5.47020585,39.6301434 5.37826962,39.9319723 C5.07181551,40.897825 4.75003869,41.8636777 4.41293917,42.8295304 C3.6468039,44.8216016 2.72744157,47.1155017 1.65485219,49.7112308 C1.59356137,49.8017795 1.54759325,49.8923282 1.51694784,49.9828769 C1.1185575,50.9487296 0.766135273,51.8089422 0.459681164,52.5635146 L0.551617397,52.4276915 C-0.0919362328,56.079822 -0.0306454109,59.4904894 0.735489862,62.6596935 C1.50162514,65.8288977 2.62018263,68.8773702 4.09116236,71.8051112 C4.52019811,72.6200494 4.99520198,73.344439 5.51617397,73.9782798 C7.20167157,75.9099852 9.48475468,76.8607464 12.3654233,76.83126 C16.3799721,76.7701977 19.2912862,74.9743154 21.0993654,71.4429165 C22.110664,69.5112111 22.8461538,67.8511518 23.305835,66.4627385 C23.7655162,65.0139595 24.3018109,63.9726495 24.9147191,63.3388087 C26.0179539,64.1537469 27.2284476,64.8479535 28.5462003,65.4214286 C32.775267,67.2927682 38.705154,65.2554226 46.3358613,59.309392 C50.1052469,56.3514681 53.0012382,53.5897331 55.0238353,51.0241869 C55.0851261,50.9638211 55.1310943,50.9034553 55.1617397,50.8430895 C55.8665841,49.9376026 56.4641696,49.0472071 56.9544962,48.1719031 C57.7819223,46.6627583 58.2569262,45.2290707 58.3795078,43.8708403 C58.5327349,42.210781 58.7932209,40.6110875 59.1609658,39.0717598 C59.3448383,38.2870044 59.5440334,37.5173406 59.7585513,36.7627682 C60.2488779,35.1027088 60.8617861,33.5030153 61.597276,31.9636876 C63.7118093,27.6173505 64.8456895,23.4370193 64.9989166,19.422694 C65.0602074,17.2495255 64.8456895,15.1367227 64.3553629,13.0842857 L64.3553629,13.0842857 Z M62.3327658,28.5681117 C62.1488934,28.477563 61.9650209,28.4021058 61.7811484,28.34174 C59.360161,27.4362531 56.9698189,27.2853386 54.6101223,27.8889965 C54.5488315,27.7984478 54.4875406,27.7229906 54.4262498,27.6626248 C54.3343136,27.5720761 54.2577,27.4815274 54.1964092,27.3909787 C54.1657638,27.2702472 54.1351184,27.1495156 54.104473,27.028784 C54.1351184,26.9382353 54.1964092,26.8627781 54.2883455,26.8024123 C54.9931899,25.987474 55.9431976,25.5950964 57.1383687,25.6252793 C58.3335397,25.6252793 59.2835474,25.8365596 59.9883919,26.2591201 C60.6932363,26.6514978 61.3674354,27.0891498 62.010989,27.5720761 C62.6545426,28.0248196 62.6698653,28.6284775 62.0569571,29.3830499 L62.3327658,28.5681117 L62.3327658,28.5681117 Z M56.9085281,36.0383786 C56.602074,36.0383786 56.1577155,35.8120069 55.5754527,35.3592635 C54.8706083,34.7857884 54.518186,34.1821305 54.518186,33.5482897 C54.518186,33.0955462 54.7020585,32.6126199 55.0698034,32.0995106 C55.406903,31.5864014 56.1117474,31.4505783 57.1843368,31.6920415 C58.2569262,31.9033218 58.839189,32.280608 58.9311252,32.8239001 C59.0230614,33.3671923 59.0690296,33.8652101 59.0690296,34.3179535 C59.0690296,34.6801483 58.8698344,35.0423431 58.471444,35.4045378 C58.0117629,35.8270984 57.4907909,36.0383786 56.9085281,36.0383786 L56.9085281,36.0383786 Z M43.2100294,21.8222343 C43.7616468,22.5768067 43.9455193,23.2710133 43.7616468,23.9048542 C43.4858381,23.6030252 43.0568024,23.225739 42.4745395,22.7729956 C41.2793685,21.77696 40.0382294,21.0525704 38.7511221,20.599827 C36.7591704,19.8754375 34.8131868,19.8301631 32.9131713,20.464004 C32.8825259,20.4338211 32.8518805,20.4036382 32.8212351,20.3734553 C35.2422226,18.8039446 37.1882062,18.2304696 38.6591859,18.6530302 C40.5592014,19.1661394 42.0761492,20.2225408 43.2100294,21.8222343 L43.2100294,21.8222343 Z M37.2801424,26.1685714 C37.5559511,25.987474 38.2454728,26.15348 39.3487076,26.6665892 C40.4519424,27.1495156 40.6664603,28.1757341 39.9922613,29.7452447 C39.0728989,30.53 38.0922458,30.5752743 37.0503018,29.8810677 C36.1615849,29.3679585 35.7631946,28.7341176 35.8551308,27.9795452 C35.9777124,26.7420465 36.4527163,26.1383885 37.2801424,26.1685714 L37.2801424,26.1685714 Z M50.7028324,41.335477 C50.825414,41.5769402 50.8407367,41.6976718 50.7488005,41.6976718 C49.9520198,42.1504152 48.9713667,42.4220613 47.806841,42.51261 C46.3358613,42.7540732 45.1100449,42.6333416 44.1293917,42.1504152 C45.2326265,42.1504152 46.4277976,41.9542264 47.7149048,41.5618487 C48.9713667,41.1694711 49.4157251,40.32435 49.0479802,39.0264854 C48.6802353,37.7286209 48.848785,36.1742017 49.5536295,34.3632279 C49.2471754,36.8080425 49.630243,39.1321256 50.7028324,41.335477 L50.7028324,41.335477 Z M34.751896,57.1814978 C33.2809163,53.891562 32.668008,50.7374493 32.9131713,47.7191597 L32.9131713,42.51261 C32.9744622,42.9653534 33.0970438,43.4030054 33.2809163,43.825566 C33.9551153,45.3648937 35.0430274,46.6929412 36.5446525,47.8097084 C37.4640149,48.6548295 38.3986999,49.4848591 39.3487076,50.2997973 C40.421297,51.2052842 41.5245318,51.8542165 42.658412,52.2465942 C43.7922922,52.6389718 44.9874632,52.9106179 46.2439251,53.0615324 C47.5003869,53.2124469 48.4810401,53.2577212 49.1858845,53.1973554 C47.8987773,53.9821107 46.4124748,54.9177805 44.7269772,56.0043648 C44.3898777,56.2156451 44.0681009,56.4118339 43.7616468,56.5929313 C43.4858381,56.7438458 43.2253521,56.8796688 42.9801888,57.0004004 C41.0188825,57.9360702 38.9349946,58.4039051 36.728525,58.4039051 C35.7785173,58.4039051 35.1196409,57.996436 34.751896,57.1814978 Z" id="Shape" fill="#FFFFFF"></path>
                                    <path d="M32.9131713,47.7191597 C32.668008,50.7374493 33.2809163,53.891562 34.751896,57.1814978 C35.1196409,57.996436 35.7785173,58.4039051 36.728525,58.4039051 C38.9349946,58.4039051 41.0188825,57.9360702 42.9801888,57.0004004 C43.2253521,56.8796688 43.4858381,56.7438458 43.7616468,56.5929313 C44.0681009,56.4118339 44.3898777,56.2156451 44.7269772,56.0043648 C46.4124748,54.9177805 47.8987773,53.9821107 49.1858845,53.1973554 C48.4810401,53.2577212 47.5003869,53.2124469 46.2439251,53.0615324 C44.9874632,52.9106179 43.7922922,52.6389718 42.658412,52.2465942 C41.5245318,51.8542165 40.421297,51.2052842 39.3487076,50.2997973 C38.3986999,49.4848591 37.4640149,48.6548295 36.5446525,47.8097084 C35.0430274,46.6929412 33.9551153,45.3648937 33.2809163,43.825566 C33.0970438,43.4030054 32.9744622,42.9653534 32.9131713,42.51261 L32.9131713,47.7191597 L32.9131713,47.7191597 Z M35.0736728,51.2505586 C35.0430274,51.1901928 35.0430274,51.1449184 35.0736728,51.1147355 C35.0736728,50.994004 35.0736728,50.8732724 35.0736728,50.7525408 C35.1043182,50.6016263 35.1196409,50.4507118 35.1196409,50.2997973 C35.1502863,49.9074197 35.1809317,49.4999506 35.2115772,49.07739 C37.0196564,51.2505586 39.2414487,52.8200692 41.876954,53.7859219 C42.3672806,53.9972022 42.8729299,54.193391 43.3939019,54.3744884 C43.3019656,54.49522 43.1947067,54.6159516 43.0721251,54.7366831 C43.0108342,54.7970489 42.9495434,54.8725062 42.8882526,54.9630549 C42.6124439,55.1743351 42.3366352,55.3554325 42.0608265,55.506347 C41.9995357,55.506347 41.9535676,55.5214385 41.9229221,55.5516214 C41.8309859,55.6119871 41.723727,55.6572615 41.6011453,55.6874444 L41.6011453,55.7327187 C41.0188825,55.9741819 40.528556,56.1703707 40.1301656,56.3212852 C39.0269308,56.68348 38.0462777,56.8494859 37.1882062,56.819303 C37.0962699,56.819303 37.0196564,56.819303 36.9583656,56.819303 C36.7132023,56.7891201 36.468039,56.7438458 36.2228757,56.68348 C35.272868,55.0837865 34.8898003,53.2728127 35.0736728,51.2505586 L35.0736728,51.2505586 Z M50.7488005,41.6976718 C50.8407367,41.6976718 50.825414,41.5769402 50.7028324,41.335477 C49.630243,39.1321256 49.2471754,36.8080425 49.5536295,34.3632279 C48.848785,36.1742017 48.6802353,37.7286209 49.0479802,39.0264854 C49.4157251,40.32435 48.9713667,41.1694711 47.7149048,41.5618487 C46.4277976,41.9542264 45.2326265,42.1504152 44.1293917,42.1504152 C45.1100449,42.6333416 46.3358613,42.7540732 47.806841,42.51261 C48.9713667,42.4220613 49.9520198,42.1504152 50.7488005,41.6976718 L50.7488005,41.6976718 Z M39.3487076,26.6665892 C38.2454728,26.15348 37.5559511,25.987474 37.2801424,26.1685714 C36.4527163,26.1383885 35.9777124,26.7420465 35.8551308,27.9795452 C35.7631946,28.7341176 36.1615849,29.3679585 37.0503018,29.8810677 C38.0922458,30.5752743 39.0728989,30.53 39.9922613,29.7452447 C40.6664603,28.1757341 40.4519424,27.1495156 39.3487076,26.6665892 L39.3487076,26.6665892 Z M43.7616468,23.9048542 C43.9455193,23.2710133 43.7616468,22.5768067 43.2100294,21.8222343 C42.0761492,20.2225408 40.5592014,19.1661394 38.6591859,18.6530302 C37.1882062,18.2304696 35.2422226,18.8039446 32.8212351,20.3734553 C32.8518805,20.4036382 32.8825259,20.4338211 32.9131713,20.464004 C34.8131868,19.8301631 36.7591704,19.8754375 38.7511221,20.599827 C40.0382294,21.0525704 41.2793685,21.77696 42.4745395,22.7729956 C43.0568024,23.225739 43.4858381,23.6030252 43.7616468,23.9048542 L43.7616468,23.9048542 Z M55.5754527,35.3592635 C56.1577155,35.8120069 56.602074,36.0383786 56.9085281,36.0383786 C57.4907909,36.0383786 58.0117629,35.8270984 58.471444,35.4045378 C58.8698344,35.0423431 59.0690296,34.6801483 59.0690296,34.3179535 C59.0690296,33.8652101 59.0230614,33.3671923 58.9311252,32.8239001 C58.839189,32.280608 58.2569262,31.9033218 57.1843368,31.6920415 C56.1117474,31.4505783 55.406903,31.5864014 55.0698034,32.0995106 C54.7020585,32.6126199 54.518186,33.0955462 54.518186,33.5482897 C54.518186,34.1821305 54.8706083,34.7857884 55.5754527,35.3592635 L55.5754527,35.3592635 Z M61.7811484,28.34174 C61.9650209,28.4021058 62.1488934,28.477563 62.3327658,28.5681117 L62.0569571,29.3830499 C62.6698653,28.6284775 62.6545426,28.0248196 62.010989,27.5720761 C61.3674354,27.0891498 60.6932363,26.6514978 59.9883919,26.2591201 C59.2835474,25.8365596 58.3335397,25.6252793 57.1383687,25.6252793 C55.9431976,25.5950964 54.9931899,25.987474 54.2883455,26.8024123 C54.1964092,26.8627781 54.1351184,26.9382353 54.104473,27.028784 C54.1351184,27.1495156 54.1657638,27.2702472 54.1964092,27.3909787 C54.2577,27.4815274 54.3343136,27.5720761 54.4262498,27.6626248 C54.4875406,27.7229906 54.5488315,27.7984478 54.6101223,27.8889965 C56.9698189,27.2853386 59.360161,27.4362531 61.7811484,28.34174 Z" id="Shape" fill="#2853AF"></path>
                                    <path d="M35.0736728,50.7525408 C35.0736728,50.8732724 35.0736728,50.994004 35.0736728,51.1147355 C35.165609,51.26565 35.2575453,51.4014731 35.3494815,51.5222046 C35.1962544,51.2203757 35.1043182,50.9638211 35.0736728,50.7525408 L35.0736728,50.7525408 Z M35.1196409,50.2997973 C35.1502863,50.2696144 35.5639994,50.7827237 36.3607801,51.8391251 C37.1269153,52.8955264 38.444668,53.7406476 40.3140381,54.3744884 C41.6317907,54.8272318 42.4898623,55.0234207 42.8882526,54.9630549 C42.9495434,54.8725062 43.0108342,54.7970489 43.0721251,54.7366831 C43.1947067,54.6159516 43.3019656,54.49522 43.3939019,54.3744884 C42.8729299,54.193391 42.3672806,53.9972022 41.876954,53.7859219 C39.2414487,52.8200692 37.0196564,51.2505586 35.2115772,49.07739 C35.1809317,49.4999506 35.1502863,49.9074197 35.1196409,50.2997973 Z" id="Shape" fill="#E2E2E2"></path>
                                    <path d="M35.0736728,51.1147355 C35.0430274,51.1449184 35.0430274,51.1901928 35.0736728,51.2505586 C34.8898003,53.2728127 35.272868,55.0837865 36.2228757,56.68348 C36.468039,56.7438458 36.7132023,56.7891201 36.9583656,56.819303 C37.0196564,56.819303 37.0962699,56.819303 37.1882062,56.819303 C38.0462777,56.8494859 39.0269308,56.68348 40.1301656,56.3212852 C40.528556,56.1703707 41.0188825,55.9741819 41.6011453,55.7327187 L41.6011453,55.6874444 C41.723727,55.6572615 41.8309859,55.6119871 41.9229221,55.5516214 C41.5858226,55.4912556 41.2793685,55.4157983 41.0035598,55.3252496 C38.6132178,54.6612259 36.728525,53.3935442 35.3494815,51.5222046 C35.2575453,51.4014731 35.165609,51.26565 35.0736728,51.1147355 Z" id="Path" fill="#3C1529"></path>
                                </g>
                            </g>
                        </g>
                        <g transform="translate(2.175824, 67.210084)">
                            <g id="Layer0_0_MEMBER_0_FILL-link" fill="#70B9FF" fill-rule="nonzero">
                                <g id="Layer0_0_MEMBER_0_FILL">
                                    <path d="M31.1535714,0.681506426 C30.4196892,2.24695982 29.8973906,3.3373701 29.5866758,3.95273727 C29.0298134,5.05722729 28.5075149,6.05677004 28.0197802,6.95136555 C24.3808524,10.3691913 21.2470612,13.0497832 18.6184066,14.9931414 C17.9540121,15.4783598 17.3241815,15.9175528 16.7289148,16.3107205 C13.7794643,18.0674926 11.6749084,19.3244933 10.4152473,20.0817227 C10.3538004,20.1120119 10.2923535,20.142301 10.2309066,20.1725902 C7.2382512,21.9472282 5.02616329,24.1280488 3.59464286,26.7150519 C3.10006743,27.6602871 2.70066267,28.6598299 2.39642857,29.7136802 C1.25966117,33.6512729 0.645192308,37.8614681 0.553021978,42.3442659 C0.525898938,43.6605435 0.54126066,45.1295685 0.599107143,46.7513408 C0.728841682,50.6529651 1.097523,55.4386547 1.7051511,61.1084095 L16.8210852,55.5200568 L66.8800768,46.2465269 C65.6204156,39.1891492 64.2427198,27.4571367 63.7818681,26.2152805 C63.6282509,25.8518104 62.5375687,24.6856772 60.5098214,22.7168809 C60.3254808,22.565435 60.1565018,22.3988445 60.0028846,22.2171095 C58.2209249,20.4300482 56.2085394,17.9463359 53.965728,14.7659726 C53.5048764,16.1592746 52.7675137,17.8251792 51.7536401,19.7636864 C49.940957,23.3075198 47.0222299,25.1097257 42.9974588,25.170304 C40.1074149,25.1932575 37.8185184,24.2240039 36.1307692,22.2625433 C35.593709,21.6579429 35.1174957,20.9461473 34.7021291,20.1271565 C33.2274038,17.1891065 32.1059982,14.1298999 31.3379121,10.9495366 C30.5586648,7.76302077 30.4972179,4.34034405 31.1535714,0.681506426 Z" id="Path"></path>
                                </g>
                            </g>
                        </g>
                        <g transform="translate(27.197802, 1.084034)">
                            <g id="Layer0_0_MEMBER_1_FILL-link" fill="#0B2253" fill-rule="nonzero">
                                <g id="Layer0_0_MEMBER_1_FILL">
                                    <path d="M31.4825021,5.07632616 C34.4282333,2.85066964 37.4813609,1.35673582 40.641885,0.594524685 C29.0430685,0.137198004 20.6354607,4.57326681 15.4190617,13.9027311 C14.7439983,15.1222689 14.1303043,16.3418067 13.5779797,17.5613445 C11.3073119,22.3480305 10.0185545,26.906053 9.71170752,31.2354123 C8.23884193,31.3268776 6.90405748,31.8756696 5.70735418,32.8817883 C4.35722739,34.0098608 3.20655114,35.7019695 2.25532544,37.9581145 C0.843829248,41.281355 0.13808115,44.6503283 0.13808115,48.0650341 C0.13808115,51.3577862 1.3194421,54.0407694 3.68216399,56.1139837 C5.73803888,57.9432904 7.70185968,58.6750131 9.57362637,58.3091518 C9.91115807,57.3335215 10.2333474,56.3578913 10.5401944,55.382261 C10.6322485,55.0773766 10.7243026,54.7877363 10.8163567,54.5133403 C11.706213,51.4035189 12.2585376,48.400407 12.4733305,45.5040047 C11.5221048,44.2539785 10.9697802,42.7752889 10.8163567,41.0679359 C10.7549873,40.6410977 10.7243026,40.2142595 10.7243026,39.7874212 C10.7243026,37.378834 11.6908707,35.183666 13.6240068,33.201917 C14.7900254,32.0128676 15.956044,31.143947 17.1220626,30.5951549 C15.8639899,29.1926864 15.9713863,26.5097033 17.4442519,22.5462054 C18.0886306,20.7473871 18.8404057,19.0857668 19.6995773,17.5613445 C20.7428571,15.6710609 21.9549028,13.9789522 23.3357143,12.4850184 C25.821175,9.7410583 28.5367709,7.27149422 31.4825021,5.07632616 L31.4825021,5.07632616 Z M48.5125106,2.24090074 C48.3897718,2.21041229 48.2516906,2.17992384 48.0982671,2.1494354 C47.760256,2.18135299 45.9805434,2.16610877 42.7591293,2.10370273 C39.5699582,2.04010574 35.7957401,3.88465668 31.4364751,7.63735557 C27.0724155,11.389459 23.8198373,14.8498975 21.6787405,18.0186712 C19.5732427,21.1794655 18.7600981,23.8624487 19.2393068,26.0676208 C19.7475222,28.3079261 20.0543692,29.7256388 20.1598478,30.3207589 C25.7444632,23.9791623 33.2928994,19.8632222 42.8051564,17.9729386 L61.1239222,15.1832458 C62.3890668,16.7510188 63.3249501,18.0162893 63.9315723,18.9790572 C64.5379547,19.9729091 65.0135675,20.8265856 65.3584108,21.5400867 C65.7327402,22.2503722 66.6532812,23.9577251 68.1200338,26.6621455 C69.5857077,29.3964588 70.3221405,32.6587225 70.3293322,36.4489364 C71.4531593,31.7868244 71.0696006,25.9787756 69.178656,19.0247899 C67.3107249,12.1029601 60.4220097,6.50833032 48.5125106,2.24090074 Z" id="Shape"></path>
                                </g>
                            </g>
                        </g>
                        <g transform="translate(34.813187, 0.000000)">
                            <g id="Layer0_0_MEMBER_2_FILL-link" fill="#FFCC00" fill-rule="nonzero">
                                <g id="Layer0_0_MEMBER_2_FILL">
                                    <path d="M36.9624765,2.58394194 C37.272045,2.5537204 37.5970919,2.52349885 37.9376173,2.49327731 C35.9873358,0.800870894 33.4798311,0.28710466 30.4151032,0.95197861 C27.2265478,1.70751719 24.1463415,3.1883728 21.1744841,5.39454545 C18.2026266,7.57049656 15.4629456,10.0184416 12.9554409,12.7383804 C11.5623827,14.2192361 10.3395872,15.8965317 9.28705441,17.7702674 C8.42026266,19.2813445 7.66181989,20.9284186 7.01172608,22.7114897 C5.52579737,26.6402903 5.41744841,29.2997861 6.68667917,30.6899771 C5.51031895,31.2339649 4.33395872,32.0952788 3.1575985,33.273919 C1.20731707,35.2383193 0.23217636,37.4142704 0.23217636,39.8017723 C0.23217636,40.2248739 0.263133208,40.6479756 0.325046904,41.0710772 C0.479831144,42.7634836 1.03705441,44.2292284 1.9967167,45.4683117 C2.30628518,45.8611917 2.66228893,46.238961 3.06472795,46.6016196 C4.89118199,48.2335829 7.15103189,49.0948969 9.84427767,49.1855615 C11.0633245,49.2153108 12.2551631,49.0793139 13.4197936,48.7775707 C13.4324908,48.7822928 13.4479692,48.7822928 13.4662289,48.7775707 L13.4662289,48.7775707 C15.5645227,48.3937807 17.2981062,47.2151405 18.6669794,45.2416501 C20.0749113,43.2532851 20.6785699,40.9866693 20.477955,38.4418029 C20.2809678,35.9250331 18.9962586,34.0512974 16.6238274,32.8205959 C14.2426895,31.5842278 12.8031961,30.7380246 12.3053471,30.2819862 C11.3766417,29.4660046 10.9122889,28.2420321 10.9122889,26.6100688 C10.9122889,23.7994652 11.9957786,20.8528648 14.162758,17.7702674 C15.7106004,15.5338732 17.8311445,13.2068144 20.5243902,10.7890909 C25.9727955,5.953644 31.4521576,3.21859435 36.9624765,2.58394194 Z" id="Path"></path>
                                </g>
                            </g>
                        </g>
                        <g stroke-linecap="round" stroke-linejoin="round">
                            <g id="Layer0_0_MEMBER_3_1_STROKES-link" stroke="#2853AF" stroke-width="2">
                                <path d="M78.7772684,5.15545775 C77.0067887,4.2756327 75.0920634,3.46559749 73.0330926,2.72535211 C72.9115228,2.69507042 72.7747567,2.66478873 72.6227943,2.63450704 C72.2884772,2.66478873 71.9693564,2.69507042 71.6654317,2.72535211 C66.255573,3.36126761 60.8761068,6.10176056 55.527033,10.946831 C52.8828885,13.3693662 50.8010047,15.7010563 49.2813815,17.9419014 C47.1539089,21.0306338 46.0901727,23.9830986 46.0901727,26.7992958 C46.0901727,28.434507 46.5460597,29.6609155 47.4578336,30.4785211 C51.3176766,24.2707746 57.9584301,20.228169 67.3800942,18.3507042 L85.5243956,15.5799296 C86.6793093,16.0644366 87.6974568,16.8517606 88.5788383,17.9419014 C88.8523705,18.275 89.1107064,18.6232394 89.3538462,18.9866197 C90.0528728,19.9556338 90.6911146,20.9397887 91.2685714,21.9390845 C93.6087912,26.0573944 94.7029199,30.3876761 94.5509576,34.9299296 C95.4019466,30.1454225 95.295573,25.8151408 94.2318367,21.9390845 C92.7066336,16.3537687 89.1735096,11.6903884 83.6324647,7.94894366 M94.5509576,34.9299296 C94.3989953,38.9573944 93.2744741,43.1514085 91.177394,47.5119718 C90.4479749,49.056338 89.8401256,50.6612676 89.3538462,52.3267606 C89.1410989,53.0838028 88.9435479,53.8559859 88.7611931,54.6433099 C88.3964835,56.1876761 88.1381476,57.7926056 87.9861852,59.4580986 C87.8646154,60.8207746 87.3935322,62.2591549 86.5729356,63.7732394 C86.0866562,64.6514085 85.4940031,65.5447183 84.7949765,66.453169 C84.764584,66.5137324 84.7189953,66.5742958 84.6582104,66.6348592 C82.6523077,69.2088028 79.7802198,71.9795775 76.0419466,74.9471831 C68.4742229,80.9126761 62.593281,82.9566901 58.3991209,81.0792254 C57.0922449,80.5038732 55.8917425,79.8073944 54.7976138,78.9897887 C54.1897645,79.6257042 53.6578964,80.6704225 53.2020094,82.1239437 C55.4206593,85.3035211 57.4113658,87.7866197 59.1741287,89.5732394 C59.3260911,89.7549296 59.4932496,89.9214789 59.6756044,90.0728873 C61.6815071,92.0411972 62.7604396,93.2070423 62.9124019,93.5704225 C63.3682889,94.8119718 64.2192779,98.9605634 65.4653689,106.016197 C66.3426528,110.646955 65.9178577,113.260034 64.1909836,113.855434 C55.0272245,117.014963 39.1160699,120.034279 16.4575196,122.91338 L1.504427,128.45493 C0.896577708,122.792254 0.531868132,118.007746 0.410298273,114.101408 C0.366609105,112.925154 0.343814757,111.835013 0.341915228,110.830986 M43.7195604,9.35704225 C42.4371409,10.8151766 41.2822272,12.4655287 40.2548195,14.3080986 C39.5861852,15.5193662 38.9783359,16.7306338 38.4312716,17.9419014 C36.1822292,22.6961268 34.9057457,27.2232394 34.601821,31.5232394 C34.3586813,34.9147887 34.7233909,38.1700704 35.6959498,41.2890845 C35.6351648,40.8651408 35.6047724,40.4411972 35.6047724,40.0172535 C35.6047724,37.625 36.562135,35.4447183 38.4768603,33.4764085 C39.6317739,32.2954225 40.7866876,31.4323944 41.9416013,30.8873239 C40.6955102,29.4943662 40.8018838,26.8295775 42.2607221,22.8929577 C42.8989639,21.106338 43.6435793,19.4559859 44.4945683,17.9419014 C45.5279121,16.0644366 46.7284144,14.3838028 48.0960754,12.9 C50.557865,10.1746479 53.2475981,7.72183099 56.1652747,5.5415493 C59.0829513,3.33098592 62.1070016,1.8471831 65.2374254,1.09014085 C57.9679278,0.802701364 51.965416,2.4606239 47.2298901,6.06390845 M72.6227943,2.63450704 C70.7080691,0.938732394 68.2462794,0.423943662 65.2374254,1.09014085 M34.601821,31.5232394 C33.1429827,31.6140845 31.8209105,32.1591549 30.6356044,33.1584507 C29.2983359,34.2788732 28.1586185,35.959507 27.2164521,38.2003521 C27.0116591,38.6839129 26.8217062,39.1684199 26.6465934,39.6538732 M55.6182104,63.0919014 C56.7427316,63.3644366 57.624113,63.8640845 58.2623548,64.5908451 C59.1742474,65.6542529 59.9492553,66.7519641 60.5873783,67.8839789 C61.2262137,69.0122084 61.4161666,70.0190746 61.157237,70.9045775 C60.8960518,71.7834562 60.3641837,72.1771182 59.5616327,72.0855634 C58.7599127,72.0029985 57.8101482,71.2838083 56.7123391,69.927993 C55.6169044,68.5766725 54.9634664,67.5546655 54.7520251,66.8619718 C54.3569231,65.6507042 54.5088854,64.4242958 55.2079121,63.1827465 C54.1137834,62.3045775 52.7309262,60.2757042 51.0593407,57.0961268 C50.6034537,56.2179577 50.2235479,55.4003521 49.9196232,54.6433099 C48.8862794,52.2207746 48.4455887,50.3584507 48.597551,49.056338 L48.5519623,49.056338 C47.3970487,49.3288732 46.2269388,49.45 45.0416327,49.4197183 C42.3974882,49.3288732 40.1788383,48.4658451 38.3856829,46.8306338 C37.9905808,46.4672535 37.6410675,46.0887324 37.3371429,45.6950704 C37.1243956,48.571831 36.5773312,51.5545775 35.6959498,54.6433099 C35.6047724,54.9158451 35.513595,55.2035211 35.4224176,55.506338 C35.1184929,56.4753521 34.7993721,57.4443662 34.4650549,58.4133803 C33.948383,59.7722711 33.3633281,61.2712148 32.7098901,62.9102113 M37.3371429,45.6950704 C36.3949765,44.4535211 35.8479121,42.9848592 35.6959498,41.2890845 M25.4156986,44.468662 C25.2181476,45.7190829 25.1193721,46.975773 25.1193721,48.2387324 C25.1193721,51.5091549 26.2894819,54.1739437 28.6297017,56.2330986 C30.6659969,58.05 32.6111146,58.7767606 34.4650549,58.4133803 M32.2312088,82.9869718 C32.1035842,82.6402701 31.9820143,82.2920307 31.8664992,81.9422535 C31.4613059,80.749084 31.1117926,79.5378164 30.8179592,78.3084507 C30.0975628,75.2941214 30.0063854,72.0615509 30.544427,68.6107394 C29.8393456,69.8793767 29.3530661,70.7802569 29.0855887,71.3133803 C28.5385243,72.4035211 28.0218524,73.4028169 27.535573,74.3112676 C23.9492622,77.7330986 20.8492308,80.4130282 18.2354788,82.3510563 C17.5668446,82.8355634 16.9437991,83.2746479 16.3663422,83.6683099 C13.4486656,85.4246479 11.3667818,86.681338 10.1206907,87.4383803 C10.0599058,87.468662 9.99912088,87.4989437 9.93833595,87.5292254 C6.99026688,89.3158451 4.81720565,91.4961268 3.41915228,94.0700704 C2.90248038,95.0088028 2.4921821,96.0080986 2.18825746,97.0679577 C1.79968505,98.4283863 1.47296605,99.8213441 1.20810047,101.246831 M47.4578336,30.4785211 C47.944113,30.9327465 49.3573626,31.7806338 51.6975824,33.0221831 C54.0378022,34.2637324 55.2990895,36.156338 55.4814443,38.7 C55.6637991,41.2133803 55.0863422,43.4693662 53.7490738,45.4679577 C52.3814129,47.4362676 50.6642386,48.6323944 48.597551,49.056338 L48.597551,49.0109155 C48.5671586,49.0109155 48.5519623,49.0260563 48.5519623,49.056338 M54.7976138,78.9897887 C52.3358242,77.1728873 50.360314,74.8109155 48.8710832,71.9038732 C46.6828257,67.6341549 45.0872214,63.4098592 44.08427,59.2309859 M34.1459341,87.4838028 C34.5714286,88.3014085 35.0425118,89.028169 35.5591837,89.6640845 C35.7098401,89.8387957 35.8618024,90.005345 36.0150706,90.1637324 C37.6402365,91.7659414 39.7525128,92.5532653 42.3518995,92.5257042 C46.3333124,92.4651408 49.2205965,90.6633803 51.013752,87.1204225 C52.0167033,85.1823944 52.7461224,83.5169014 53.2020094,82.1239437 M16.5942857,99.0665493 C16.7766405,101.277113 16.7310518,103.941901 16.4575196,107.060915 L16.4575196,122.91338" id="Layer0_0_MEMBER_3_1_STROKES"></path>
                            </g>
                        </g>
                    </g>
                </g>
            </g>
        </g>
    </g>
</svg>